<?xml version="1.0" encoding="UTF-8" standalone="no"?>
<svg
   version="1.1"
   id="Layer_1"
   x="0px"
   y="0px"
   width="800"
   viewBox="0 0 800 1024"
   enable-background="new 0 0 1536 1024"
   xml:space="preserve"
   sodipodi:docname="logo.svg"
   height="1024"
   inkscape:version="1.4.2 (ebf0e940d0, 2025-05-08)"
   xmlns:inkscape="http://www.inkscape.org/namespaces/inkscape"
   xmlns:sodipodi="http://sodipodi.sourceforge.net/DTD/sodipodi-0.dtd"
   xmlns="http://www.w3.org/2000/svg"
   xmlns:svg="http://www.w3.org/2000/svg"><defs
   id="defs235" /><sodipodi:namedview
   id="namedview235"
   pagecolor="#ffffff"
   bordercolor="#000000"
   borderopacity="0.25"
   inkscape:showpageshadow="2"
   inkscape:pageopacity="0.0"
   inkscape:pagecheckerboard="0"
   inkscape:deskcolor="#d1d1d1"
   showgrid="false"
   inkscape:zoom="0.59385921"
   inkscape:cx="468.12442"
   inkscape:cy="661.77301"
   inkscape:window-width="1920"
   inkscape:window-height="1123"
   inkscape:window-x="0"
   inkscape:window-y="40"
   inkscape:window-maximized="1"
   inkscape:current-layer="Layer_1" />

<path
   fill="#fcfcfc"
   opacity="1"
   stroke="none"
   d="m 16.190699,1.7627907 c 255.958701,0 511.917601,0 767.938201,0 0,341.2371793 0,682.4743693 0,1024.0000093 -255.6341,0 -511.3303,0 -767.485322,-0.4536 C 16.186669,683.82462 16.188689,342.7937 16.190699,1.7627907 M 199.07632,280.67594 c 0,0 -0.0167,-0.0943 -0.54932,0.2294 -0.21801,0.58001 -0.43609,1.16003 -0.50067,1.75244 0,0 -0.045,-0.14719 -0.5766,0.19821 -0.18445,0.60263 -0.36889,1.20526 -0.41424,1.83402 0,0 -0.0215,-0.13996 -0.59863,0.31292 -1.4192,6.43433 -4.05298,12.86472 -4.0738,19.30353 -0.2771,85.87845 -0.29577,171.75849 0.0178,257.63669 0.0245,6.68652 3.01196,13.3623 4.62628,19.91162 0,0 -0.12207,0.049 0.002,0.74219 0.77143,1.52881 1.54279,3.05762 2.39643,4.82123 0,0 0.14575,0.20153 0.32519,0.69763 0.40753,0.5907 0.81513,1.18139 1.34662,2.40167 0.80194,1.19977 1.60382,2.3996 2.50342,3.76074 0,0 0.12915,0.13745 0.37915,0.6593 0.66473,0.68421 1.32941,1.36835 2.20923,1.86475 0,0 -0.23395,0.16363 -0.0974,0.65375 0.24292,0.2207 0.48578,0.4414 1.12231,0.55426 0,0 -0.38617,0.1344 -0.19989,0.66992 0.5401,0.51086 1.0802,1.02179 1.72046,1.56134 0,0 0.0266,0.10065 0.30499,0.62903 0.90155,0.77545 1.80304,1.5509 2.79102,2.33966 0,0 0.008,0.0872 0.35473,0.57104 1.09809,0.82489 2.19623,1.64978 3.448,2.64228 0,0 0.20197,0.10473 0.581,0.49298 0.63324,0.32794 1.26641,0.65582 1.96222,0.86078 0,0 -0.0971,0.098 0.25769,0.63507 1.12225,0.59912 2.24444,1.1983 3.44543,1.78143 0,0 0.0232,0.077 0.51978,0.5451 7.63446,2.07227 15.16497,5.21314 22.92761,5.96869 11.89467,1.15772 23.94897,0.844 35.93587,0.85651 74.9956,0.0783 149.9912,0.13324 224.9866,0.0409 13.1848,-0.0162 25.6717,-2.91235 35.9823,-11.80883 0,0 0.1397,0.16217 0.6926,0.002 0.5539,-0.51397 1.1078,-1.02789 1.6894,-1.62646 0,0 0.086,-0.0217 0.6272,-0.2569 0.8146,-0.83539 1.6291,-1.67071 2.5385,-2.6225 0,0 0.1149,-0.0965 0.5724,-0.39965 0.4125,-0.59327 0.8248,-1.18653 0.994,-2.16346 0,0 0.2614,0.37299 0.786,0.11591 0.4297,-0.63367 0.8594,-1.2674 1.1166,-2.09223 0,0 0.1561,0.20392 0.7396,-0.13531 3.2489,-6.22498 6.4978,-12.45001 10.0526,-18.99475 0.1442,-0.27741 0.1693,-0.56519 0.3397,-1.58466 0.5722,-3.10394 1.1443,-6.20794 1.8335,-10.2384 0.051,-1.33057 0.1479,-2.66107 0.148,-3.99164 0.01,-85.88537 0.024,-171.77075 -0.045,-257.6561 0,-3.44885 -0.8059,-6.89703 -1.1423,-11.10739 -5.715,-19.35678 -18.0046,-31.79916 -38.8259,-36.31288 -8.7123,-0.33458 -17.4246,-0.66916 -26.1004,-0.95762 0,0 0.04,-0.0427 -0.4536,-0.85354 -0.1417,-4.47428 0.087,-9.00364 -0.5676,-13.40162 -0.376,-2.52712 -2.183,-4.84134 -3.4887,-7.30138 0,0 -0.1486,-0.0281 -0.4593,-0.63115 -7.2966,-3.89032 -14.4226,-4.35058 -21.1443,1.08736 0,0 0,-0.11624 -0.5395,0.0718 -0.1976,0.31315 -0.3951,0.62632 -0.4782,0.94148 0,0 -0.033,-0.10948 -0.673,0.27977 -0.6931,5.0103 -1.3471,10.0265 -2.1017,15.02757 -0.2476,1.64173 -0.7557,3.24419 -2.067,4.69527 -1.6621,-0.009 -3.3242,-0.0241 -4.9863,-0.0252 -57.3437,-0.0407 -114.6874,-0.0801 -172.0233,-1.02649 -0.01,-2.7968 0.2937,-5.63972 -0.1102,-8.37837 -0.4771,-3.23518 -1.5652,-6.38023 -2.4418,-10.17682 -0.8179,-0.82683 -1.6356,-1.65366 -2.4545,-2.38345 0,0 0.094,-0.0228 -0.337,-0.63452 -6.892,-2.76874 -13.6362,-3.67469 -19.7876,1.61006 0,0 0,-0.10956 -0.5276,0.0887 -0.193,0.31374 -0.3859,0.62747 -0.4708,0.93884 0,0 -0.03,-0.10395 -0.6932,0.28371 -0.416,0.68192 -1.1426,1.33913 -1.1992,2.04967 -0.4685,5.88472 -0.8133,11.7793 -2.0769,17.61983 -7.3564,0.10963 -14.77964,-0.37212 -22.05564,0.44938 -16.22498,1.83187 -29.26111,9.25176 -38.0091,24.07637 0,0 -0.0991,0.46912 -0.007,0.49433 M 386.9979,725.86367 c 0.791,-0.67834 1.5822,-1.35662 2.9717,-2.22625 1.0918,-1.2406 2.1836,-2.4812 3.91,-4.03162 3.5138,-5.42749 5.8339,-11.20105 5.342,-18.63007 -0.059,-1.07238 -0.1189,-2.14483 -0.037,-4.05645 -1.6237,-5.10999 -3.2473,-10.21991 -4.9243,-15.22663 0,0 0.1053,-0.049 -0.032,-0.60815 -0.3579,-0.43591 -0.7158,-0.87189 -1.1959,-1.97321 -2.6225,-2.09234 -5.245,-4.18475 -8.398,-6.74871 -3.4806,-1.15998 -6.9613,-2.31995 -11.0693,-3.71375 -0.4419,-0.005 -0.8839,-0.009 -2.0041,-0.51233 -14.0668,0 -28.1339,0 -42.0935,0 0,31.60223 0,62.9812 0,94.3454 6.3512,0 12.417,0 18.8946,0 0,-10.40338 0,-20.53027 0.9143,-30.65503 5.6388,-0.0648 11.2776,-0.12952 17.7291,-0.0586 2.0814,-0.28955 4.1628,-0.57904 6.9049,-0.83533 0.4276,-0.1062 0.8552,-0.2124 2.0402,-0.20349 3.4908,-1.59223 6.9818,-3.18439 10.3475,-4.84827 0,0 0.07,0.12598 0.6992,-0.0175 m -232.32906,-13.5531 c -9.27692,0 -18.55383,0 -27.88123,0 0,5.29871 0,10.20325 0,15.39703 7.55481,0 14.83277,0 22.16254,0 -2.19928,11.51282 -10.08075,18.07398 -22.41876,18.90998 -11.89881,0.80621 -23.0163,-5.66754 -26.06067,-16.50849 -1.80096,-6.41308 -2.21948,-13.40576 -2.11914,-20.12079 0.19684,-13.16925 8.81207,-23.16925 21.28808,-25.87457 11.36188,-2.46362 20.43616,2.49555 26.81025,14.70056 6.75976,0 13.55401,0 20.56829,0 -1.5194,-8.95373 -5.21557,-16.43866 -12.14746,-22.1831 -14.28265,-11.836 -39.25854,-13.14459 -56.11572,-2.92609 -19.420712,11.77246 -27.324222,39.36475 -17.774722,62.60901 7.21771,17.56854 21.337592,25.64685 39.458562,27.09808 33.53503,2.68592 50.35767,-22.40539 46.63507,-51.1076 -3.78864,0 -7.60285,0 -12.40509,0.006 m 85.75116,33.98602 c 0.74304,-2.29358 1.48614,-4.58709 2.28918,-7.06579 -6.26275,0 -11.85229,0 -17.30523,0 -4.4336,7.92071 -10.56946,11.08844 -18.55274,9.35431 -5.40729,-1.1745 -11.7016,-4.93531 -12.32293,-16.83258 15.95245,0 31.89032,0 47.74182,0 2.63153,-12.65918 -2.36567,-28.96039 -13.11017,-35.48438 -12.11939,-7.35883 -29.51319,-7.07159 -40.29224,1.17133 -11.65307,8.91143 -16.01062,26.97503 -10.65582,44.17236 4.14551,13.3136 15.59228,21.79248 31.01739,21.99829 13.14978,0.17554 24.64649,-3.59741 31.19074,-17.31354 m 76.3315,-0.65118 c 3.3679,-7.24329 4.2901,-14.8255 3.5704,-22.75366 -1.2239,-13.48151 -7.2397,-23.92804 -20.0016,-28.94831 -13.7745,-5.41882 -27.4433,-4.49005 -39.2052,5.36945 -11.0871,9.29388 -14.7128,27.19269 -9.3857,42.5376 4.5199,13.01959 15.8121,21.23456 31.3251,21.74084 14.1131,0.46045 26.0329,-4.14545 33.697,-17.94592 m 309.3519,14.94391 c 8.582,3.27551 17.3352,4.1878 26.2764,1.72033 17.2754,-4.76745 26.2335,-18.39202 24.7109,-38.92468 -1.1507,-15.51837 -9.6173,-29.12378 -29.4814,-31.93536 -18.4331,-2.60901 -34.2106,6.24737 -39.595,22.93982 -6.1034,18.92126 0.9484,37.45294 18.0891,46.19989 M 403.2056,729.09728 c 0.7533,8.0083 2.4536,15.67218 7.8005,22.06708 9.7685,11.68329 26.6678,15.70831 42.1239,9.99957 13.3377,-4.92627 20.8114,-16.88012 21.1326,-32.66931 0.6187,-30.41363 -24.1466,-42.6524 -47.6702,-35.67846 -14.7033,4.35894 -23.1295,17.26446 -23.3868,36.28112 m 126.9434,7.16645 c 0,8.7608 0,17.5216 0,26.21484 6.4571,0 12.3541,0 18.095,0 0,-16.92767 0.3244,-33.56354 -0.1203,-50.17883 -0.2713,-10.14356 -7.5014,-18.50391 -16.7033,-20.39753 -11.3957,-2.34509 -21.6761,-0.70141 -29.3809,10.25269 0,-3.54236 0,-6.27972 0,-9.17236 -6.3388,0 -12.4076,0 -18.5765,0 0,23.29455 0,46.35241 0,69.51745 6.3031,0 12.3617,0 18.6596,0 0,-2.07818 0,-3.88147 6e-4,-5.68481 0.025,-12.15955 -0.1085,-24.32221 0.1291,-36.4776 0.1722,-8.80261 5.4981,-13.68903 14.2454,-13.69531 8.4451,-0.006 13.3209,4.78613 13.6156,13.63165 0.1664,4.9917 0.034,9.99341 0.036,15.98981 m 55.0561,-54.82447 c 0,-1.60602 0,-3.2121 0,-4.98993 -6.4392,0 -12.3647,0 -18.6291,0 0,5.44007 0,10.67725 0,16.3877 -3.403,0 -6.4739,0 -9.4184,0 0,4.88953 0,9.28906 0,14.03027 3.2171,0 6.1583,0 9.3758,0 0,3.1449 -0.035,5.93824 0.01,8.73029 0.1511,10.14862 0.094,20.3081 0.5801,30.44116 0.3081,6.41632 3.9584,11.00537 9.6783,13.95825 7.8246,4.03937 15.9684,2.97205 24.0957,2.17981 0,-5.12488 0,-9.7041 0,-14.46661 -2.9668,0 -5.6419,0.2171 -8.2678,-0.0505 -4.0413,-0.41168 -7.1799,-2.60705 -7.2839,-6.80756 -0.2786,-11.25573 -0.095,-22.52282 -0.095,-34.17529 5.5106,0 10.5938,0 15.7228,0 0,-4.8056 0,-9.21161 0,-14.00812 -5.3073,0 -10.3901,0 -15.7656,0 0,-3.68493 0,-6.98248 9e-4,-11.22949 z"
   id="path2" />

































<path
   fill="#16d04d"
   opacity="1"
   stroke="none"
   d="m 525.1531,256.90927 c 19.9976,4.3364 32.2872,16.77878 37.6855,36.79749 -0.091,5.59976 0.3276,10.53738 0.3323,15.4754 0.05,51.10968 0.05,102.21948 0.028,153.32923 -0.015,34.79336 -0.085,69.58673 -0.3821,104.64312 -0.4076,3.37708 -0.564,6.49109 -0.7202,9.60517 0.094,0.29815 0.069,0.58593 -0.576,1.11425 -3.7122,6.52826 -6.9239,12.80567 -10.1356,19.08307 0,0 -0.1561,-0.20392 -0.4256,-0.0972 -0.637,0.81866 -1.0043,1.53064 -1.3717,2.24255 0,0 -0.2614,-0.37299 -0.4765,-0.16968 -0.5555,0.89002 -0.896,1.57666 -1.2364,2.26331 0,0 -0.1149,0.0965 -0.5263,0.0693 -1.1636,0.94355 -1.9158,1.91425 -2.668,2.88489 0,0 -0.086,0.0217 -0.448,-0.0318 -0.868,0.5777 -1.3742,1.2088 -1.8806,1.83991 0,0 -0.1397,-0.16217 -0.4284,-0.10059 -1.662,0.63879 -3.1377,1.04956 -4.3927,1.81976 -9.6147,5.90058 -20.0454,8.19275 -31.2975,8.17804 -84.969,-0.11078 -169.9384,-0.0774 -254.9076,-0.0385 -8.58363,0.004 -16.78749,-1.55115 -24.73018,-4.77679 -1.43774,-0.58393 -3.13482,-0.5293 -4.71222,-0.76953 0,0 -0.0232,-0.077 -0.068,-0.43805 -1.28174,-0.89319 -2.51861,-1.4253 -3.75549,-1.9574 0,0 0.0971,-0.098 0.0226,-0.39227 -0.8053,-0.51447 -1.53601,-0.73462 -2.26672,-0.95478 0,0 -0.20197,-0.10473 -0.16986,-0.53845 -1.25434,-1.18658 -2.54077,-1.93951 -3.82721,-2.69244 0,0 -0.008,-0.0872 -0.0206,-0.4411 -1.02747,-1.07398 -2.04193,-1.79407 -3.0564,-2.5141 0,0 -0.0266,-0.10065 -0.008,-0.44538 -0.62927,-0.8139 -1.27746,-1.28302 -1.92572,-1.75213 0,0 0.38617,-0.1344 0.19086,-0.35846 -0.48474,-0.42279 -0.77417,-0.62152 -1.0636,-0.82032 0,0 0.23395,-0.16363 0.15167,-0.4273 -0.84717,-0.88343 -1.61206,-1.50318 -2.37695,-2.12293 0,0 -0.12915,-0.13745 -0.008,-0.52069 -0.43066,-1.57037 -0.98242,-2.75763 -1.63745,-4.28833 -0.90655,-0.89136 -1.70984,-1.43915 -2.51312,-1.98694 0,0 -0.14575,-0.20153 0.0605,-0.63403 -0.77148,-1.98224 -1.7492,-3.5321 -2.72686,-5.08191 0,0 0.12207,-0.049 0.1817,-0.40674 -0.92224,-7.70984 -2.73932,-15.05987 -2.75775,-22.41437 -0.20355,-81.32843 -0.14093,-162.65753 -0.11023,-243.98645 0.003,-9.27514 -0.99909,-18.67178 2.82977,-27.58477 0.3573,-0.83155 0.007,-1.96704 -0.0146,-2.9614 6e-5,0 0.0215,0.13996 0.27637,0.006 0.40021,-0.77111 0.54559,-1.40829 0.69104,-2.0455 0,0 0.045,0.14719 0.28986,0.0329 0.42602,-0.73013 0.60717,-1.34601 0.78839,-1.96188 0,0 0.0167,0.0943 0.16363,0.0594 0.25665,-0.0991 0.46723,-0.20605 0.46094,-0.22094 -0.0927,-0.21811 -0.21399,-0.42405 -0.32861,-0.63281 8.4754,-14.43024 21.51153,-21.85013 37.73651,-23.682 7.276,-0.8215 14.69923,-0.33975 22.90543,-0.48597 1.2982,-1.31785 2.0406,-2.57602 2.1432,-3.88439 0.4213,-5.37042 0.648,-10.7561 0.9462,-16.13618 0,0 0.03,0.10395 0.2439,0.009 0.4037,-0.41072 0.5935,-0.72644 0.7835,-1.04218 0,2e-5 0,0.10958 0.3595,0.13353 6.7201,-2.91662 13.2919,-1.94075 19.8606,-1.02227 0,0 -0.094,0.0228 -0.024,0.27644 0.8593,1.08317 1.6484,1.91272 2.4374,2.74225 0.8231,3.18413 1.9112,6.32918 2.3883,9.56436 0.4039,2.73865 0.1005,5.58157 0.3437,9.18054 1.8628,0.97522 3.4921,1.29901 5.1212,1.29958 57.5246,0.0198 115.049,0.009 172.9696,-0.0386 1.1397,-1.50345 2.3927,-2.9176 2.5352,-4.43593 0.5199,-5.54375 0.6694,-11.12222 0.9586,-16.68762 0,0 0.033,0.10948 0.2489,0.0193 0.4098,-0.40657 0.6038,-0.72293 0.7979,-1.03931 -2e-4,-1e-5 0,0.11623 0.3537,0.10871 7.2047,-2.96915 14.1464,-2.10834 21.1054,-0.47678 0,0 0.1486,0.0281 0.097,0.43181 3.7421,5.28053 2.0744,11.02072 2.5929,16.4346 0.154,1.60789 1.3116,3.11967 2.0093,4.67552 0,0 -0.04,0.0427 0.2254,0.32831 8.1563,0.76285 16.0455,1.27264 23.9401,1.672 0.8899,0.045 1.8114,-0.53336 2.7183,-0.82267 M 213.43933,325.9253 c -0.41668,1.99399 -1.19586,3.98767 -1.19763,5.98202 -0.0615,70.10276 -0.0497,140.2056 -0.0486,210.30841 6e-5,4.99543 -0.2182,10.00483 0.10071,14.97974 0.13519,2.1087 1.39691,4.14508 2.59063,6.85004 3.28052,18.28106 14.98096,29.17175 34.08866,32.54474 0.8634,0.38458 1.7198,1.08276 2.5912,1.10186 4.9887,0.1095 9.9809,0.0602 14.972,0.0602 77.361,6.8e-4 154.7222,0.0128 232.0832,-0.073 1.8433,-0.002 3.6851,-1.10236 6.3253,-1.65088 1.4294,0.21521 2.8985,0.76098 4.2818,0.59436 13.5135,-1.62805 23.419,-8.89557 28.5997,-21.14728 2.952,-6.9812 3.4016,-15.02063 5.327,-21.91125 0,2.37671 0,4.75347 0,7.13018 0.2505,-0.0113 0.5009,-0.0225 0.7514,-0.0338 0,-77.57898 0,-155.15793 0,-232.73688 -0.3907,-0.002 -0.7813,-0.003 -1.1719,-0.005 0,8.58853 0,17.17706 -0.2719,24.87683 -0.087,-8.73139 -0.1733,-17.46277 -0.5277,-26.93894 -1.8549,-0.36218 -3.7099,-1.04043 -5.565,-1.04129 -105.6454,-0.0492 -211.2908,-0.0466 -316.93627,-7.6e-4 -1.73224,7.6e-4 -3.4643,0.59613 -5.99262,1.11017 z"
   id="path36" />
<path
   fill="#0c0d0c"
   opacity="1"
   stroke="none"
   d="m 155.16226,712.30759 c 4.30822,-0.003 8.12243,-0.003 11.91107,-0.003 3.7226,28.70221 -13.10004,53.79352 -46.63507,51.1076 -18.12097,-1.45123 -32.240852,-9.52954 -39.458562,-27.09808 -9.5495,-23.24426 -1.64599,-50.83655 17.774722,-62.60901 16.85718,-10.2185 41.83307,-8.90991 56.11572,2.92609 6.93189,5.74444 10.62806,13.22937 12.14746,22.1831 -7.01428,0 -13.80853,0 -20.56829,0 -6.37409,-12.20501 -15.44837,-17.16418 -26.81025,-14.70056 -12.47601,2.70532 -21.09124,12.70532 -21.28808,25.87457 -0.10034,6.71503 0.31818,13.70771 2.11914,20.12079 3.04437,10.84095 14.16186,17.3147 26.06067,16.50849 12.33801,-0.836 20.21948,-7.39716 22.41876,-18.90998 -7.32977,0 -14.60773,0 -22.16254,0 0,-5.19378 0,-10.09832 0,-15.39703 9.3274,0 18.60431,0 28.37525,-0.003 z"
   id="path37" />
<path
   fill="#0a0b0a"
   opacity="1"
   stroke="none"
   d="m 385.1665,672.83432 c 2.6225,2.09241 5.245,4.18482 7.7049,6.79663 0.3901,1.01728 0.9427,1.51514 1.4953,2.01294 0,0 -0.1053,0.049 -0.1089,0.40064 1.0086,4.98291 1.9714,9.6261 3.0927,14.23077 0.1453,0.59656 1.109,0.99378 1.6937,1.4834 0.06,1.07239 0.1189,2.14484 -0.2571,3.69135 -2.1373,6.47131 -3.8392,12.4685 -5.5411,18.46569 -1.0918,1.24067 -2.1836,2.48127 -3.9564,3.80445 -1.4273,0.81744 -2.1734,1.55231 -2.9195,2.28711 0,6e-5 -0.07,-0.12592 -0.4014,-0.14002 -3.8121,1.57306 -7.2929,3.16016 -10.7738,4.74732 -0.4277,0.10614 -0.8553,0.21234 -1.8604,0.002 -2.7651,0.12762 -4.9526,0.57202 -7.1401,1.01641 -5.6388,0.0648 -11.2776,0.12958 -17.7832,0.2533 -1.318,1.52197 -2.11,2.97376 -2.1582,4.44989 -0.1633,4.98224 -0.062,9.97302 -0.062,14.96057 0,9.59198 0,9.43671 -9.4606,9.54218 -3.984,0.0444 -5.6364,-1.05933 -5.6134,-5.34162 0.1468,-27.09808 0.1306,-54.19763 0.01,-81.29596 -0.016,-3.53704 1.1544,-4.56146 4.5862,-4.5025 10.4707,0.17987 20.947,0.11499 31.4198,0.0138 1.7071,-0.0165 3.4079,-0.70123 5.1117,-1.07708 0.4419,0.005 0.8839,0.009 1.672,0.4483 3.982,1.53992 7.6179,2.64533 11.2536,3.75073 m -36.9633,14.58667 c 0,9.39179 0,18.78357 0,28.06812 0.9299,0.15368 1.246,0.25073 1.5625,0.25146 4.9809,0.0125 9.9624,0.0536 14.9428,0.006 8.0132,-0.0764 13.3333,-4.6026 14.4242,-12.19263 1.392,-9.68426 -2.2584,-17.20038 -10.3318,-18.76599 -6.2545,-1.21289 -12.8382,-0.77502 -19.2788,-0.87482 -0.4264,-0.007 -0.8786,1.65338 -1.3189,3.50769 z"
   id="path38" />
<path
   fill="#0c0c0c"
   opacity="1"
   stroke="none"
   d="m 240.32327,746.6738 c -6.44812,13.33893 -17.94483,17.11188 -31.09461,16.93634 -15.42511,-0.20581 -26.87188,-8.68469 -31.01739,-21.99829 -5.3548,-17.19733 -0.99725,-35.26093 10.65582,-44.17236 10.77905,-8.24292 28.17285,-8.53016 40.29224,-1.17133 10.7445,6.52399 15.7417,22.8252 13.11017,35.48438 -15.8515,0 -31.78937,0 -47.74182,0 0.62133,11.89727 6.91564,15.65808 12.32293,16.83258 7.98328,1.73413 14.11914,-1.4336 18.55274,-9.35431 5.45294,0 11.04248,0 17.30523,0 -0.80304,2.4787 -1.54614,4.77221 -2.38531,7.44299 m -29.63672,-25.92206 c 4.7608,0 9.52167,0 14.33966,0 -1.56207,-11.28228 -6.87134,-15.69818 -17.23205,-15.01263 -5.84089,0.38653 -13.81727,6.21026 -12.47559,15.01282 4.76318,0 9.56701,0 15.36798,-1.9e-4 z"
   id="path39" />
<path
   fill="#0c0d0c"
   opacity="1"
   stroke="none"
   d="m 316.5249,745.94931 c -7.4381,13.49658 -19.3579,18.10248 -33.471,17.64203 -15.513,-0.50628 -26.8052,-8.72125 -31.3251,-21.74084 -5.3271,-15.34491 -1.7014,-33.24372 9.3857,-42.5376 11.7619,-9.8595 25.4307,-10.78827 39.2052,-5.36945 12.7619,5.02027 18.7777,15.4668 20.0016,28.94831 0.7197,7.92816 -0.2025,15.51037 -3.7964,23.05755 m -19.4983,-2.91461 c 5.3075,-7.70813 5.5266,-16.19214 3.2843,-24.80414 -2.1595,-8.29406 -6.4058,-11.43054 -14.4582,-11.59137 -8.5261,-0.17041 -13.8334,3.20563 -16.0272,11.14728 -1.128,4.08344 -1.7098,8.57404 -1.3129,12.76459 0.652,6.88452 2.5951,13.57873 10.1058,16.36432 6.547,2.4281 12.6845,1.77002 18.4082,-3.88068 z"
   id="path40" />
<path
   fill="#0c0d0c"
   opacity="1"
   stroke="none"
   d="m 625.773,760.39084 c -16.8109,-8.54846 -23.8627,-27.08014 -17.7593,-46.0014 5.3844,-16.69245 21.1619,-25.54883 39.595,-22.93982 19.8641,2.81158 28.3307,16.41699 29.4814,31.93536 1.5226,20.53266 -7.4355,34.15723 -24.7109,38.92468 -8.9412,2.46747 -17.6944,1.55518 -26.6062,-1.91882 m 27.0692,-16.4425 c 7.4744,-9.33527 7.1101,-19.70111 2.7932,-29.86853 -1.3165,-3.10077 -5.447,-6.10742 -8.8584,-7.01386 -10.6626,-2.83331 -18.1085,1.99994 -20.6267,12.85736 -0.9174,3.95471 -1.2343,8.2674 -0.7532,12.28852 1.752,14.64569 15.2606,20.67205 27.4451,11.73651 z"
   id="path41" />
<path
   fill="#0c0c0c"
   opacity="1"
   stroke="none"
   d="m 403.1989,728.63828 c 0.264,-18.55768 8.6902,-31.4632 23.3935,-35.82214 23.5236,-6.97394 48.2889,5.26483 47.6702,35.67846 -0.3212,15.78919 -7.7949,27.74304 -21.1326,32.66931 -15.4561,5.70874 -32.3554,1.68372 -42.1239,-9.99957 -5.3469,-6.3949 -7.0472,-14.05878 -7.8072,-22.52606 m 52.0973,0.46588 c -0.04,-2.32458 0.054,-4.66052 -0.1431,-6.97168 -0.7312,-8.56232 -5.8381,-14.62207 -12.8298,-15.37054 -10.0437,-1.07514 -16.435,2.56011 -18.7411,11.3468 -1.0346,3.94207 -1.4458,8.21783 -1.2122,12.28882 0.5628,9.79791 5.781,16.29138 13.2511,17.3963 11.6846,1.72827 18.9594,-4.85462 19.6751,-18.6897 z"
   id="path42" />
<path
   fill="#0c0c0b"
   opacity="1"
   stroke="none"
   d="m 530.1487,735.76413 c 0,-5.49682 0.131,-10.49853 -0.035,-15.49023 -0.2947,-8.84552 -5.1705,-13.6377 -13.6156,-13.63165 -8.7473,0.006 -14.0732,4.8927 -14.2454,13.69531 -0.2376,12.15539 -0.1046,24.31805 -0.1291,36.4776 0,1.80334 -6e-4,3.60663 -6e-4,5.68481 -6.2979,0 -12.3565,0 -18.6596,0 0,-23.16504 0,-46.2229 0,-69.51745 6.1689,0 12.2377,0 18.5765,0 0,2.89264 0,5.63 0,9.17236 7.7048,-10.9541 17.9852,-12.59778 29.3809,-10.25269 9.2019,1.89362 16.432,10.25397 16.7033,20.39753 0.4447,16.61529 0.1203,33.25116 0.1203,50.17883 -5.7409,0 -11.6379,0 -18.095,0 0,-8.69324 0,-17.45404 -3e-4,-26.71442 z"
   id="path43" />
<path
   fill="#0d0d0c"
   opacity="1"
   stroke="none"
   d="m 585.2046,681.91404 c -4e-4,3.77221 -4e-4,7.06976 -4e-4,10.75469 5.3755,0 10.4583,0 15.7656,0 0,4.79651 0,9.20252 0,14.00812 -5.129,0 -10.2122,0 -15.7228,0 0,11.65247 -0.1835,22.91956 0.095,34.17529 0.104,4.20051 3.2426,6.39588 7.2839,6.80756 2.6259,0.26758 5.301,0.0505 8.2678,0.0505 0,4.76251 0,9.34173 0,14.46661 -8.1273,0.79224 -16.2711,1.85956 -24.0957,-2.17981 -5.7199,-2.95288 -9.3702,-7.54193 -9.6783,-13.95825 -0.4865,-10.13306 -0.429,-20.29254 -0.5801,-30.44116 -0.042,-2.79205 -0.01,-5.58539 -0.01,-8.73029 -3.2175,0 -6.1587,0 -9.3758,0 0,-4.74121 0,-9.14074 0,-14.03027 2.9445,0 6.0154,0 9.4184,0 0,-5.71045 0,-10.94763 0,-16.3877 6.2644,0 12.1899,0 18.6291,0 0,1.77783 0,3.38391 -5e-4,5.46473 z"
   id="path44" />
<path
   fill="#2cd352"
   opacity="1"
   stroke="none"
   d="m 222.1315,610.50486 c 1.3291,0.006 3.02618,-0.0485 4.46392,0.53546 7.94269,3.22564 16.14655,4.78076 24.73018,4.77679 84.9692,-0.039 169.9386,-0.0723 254.9076,0.0385 11.2521,0.0147 21.6828,-2.27746 31.2975,-8.17804 1.255,-0.7702 2.7307,-1.18097 4.4751,-1.75134 -10.1043,8.76648 -22.5912,11.6626 -35.776,11.67883 -74.9954,0.0924 -149.991,0.0374 -224.9866,-0.0409 -11.9869,-0.0125 -24.0412,0.30121 -35.93586,-0.85651 -7.76264,-0.75555 -15.29315,-3.89642 -23.17584,-6.20275 z"
   id="path45" />
<path
   fill="#06ca35"
   opacity="1"
   stroke="none"
   d="m 196.72537,284.77649 c 0.3103,0.76792 0.66052,1.90341 0.30322,2.73496 -3.82886,8.91299 -2.82629,18.30963 -2.82977,27.58477 -0.0307,81.32892 -0.0933,162.65802 0.11023,243.98645 0.0184,7.3545 1.83551,14.70453 2.7558,22.48011 -1.672,-6.25733 -4.65949,-12.93311 -4.68396,-19.61963 -0.3136,-85.8782 -0.29493,-171.75824 -0.0178,-257.63669 0.0208,-6.43881 2.6546,-12.8692 4.36231,-19.52997 z"
   id="path46" />
<path
   fill="#040505"
   opacity="1"
   stroke="none"
   d="m 371.9018,668.38596 c -1.3647,0.62518 -3.0655,1.30993 -4.7726,1.32641 -10.4728,0.1012 -20.9491,0.16608 -31.4198,-0.0138 -3.4318,-0.059 -4.6023,0.96546 -4.5862,4.5025 0.1241,27.09833 0.1403,54.19788 -0.01,81.29596 -0.023,4.28229 1.6294,5.38599 5.6134,5.34162 9.4589,-0.10547 9.4606,0.0498 9.4606,-9.54218 0,-4.98755 -0.101,-9.97833 0.062,-14.96057 0.048,-1.47613 0.8402,-2.92792 1.701,-4.45099 0.4097,10.0669 0.4097,20.19379 0.4097,30.59717 -6.4776,0 -12.5434,0 -18.8946,0 0,-31.3642 0,-62.74317 0,-94.3454 13.9596,0 28.0267,0 42.4327,0.24927 z"
   id="path47" />
<path
   fill="#01c117"
   opacity="1"
   stroke="none"
   d="m 563.0678,566.89151 c 0.046,-34.79339 0.1162,-69.58676 0.131,-104.38012 0.022,-51.10975 0.022,-102.21955 -0.028,-153.32923 0,-4.93802 -0.4228,-9.87564 -0.3792,-15.09448 0.7,3.16751 1.5031,6.61569 1.5059,10.06454 0.068,85.88535 0.053,171.77073 0.045,257.6561 -10e-5,1.33057 -0.097,2.66107 -0.4581,4.50049 -0.4789,0.53345 -0.6476,0.55811 -0.8163,0.5827 z"
   id="path48" />
<path
   fill="#01c117"
   opacity="1"
   stroke="none"
   d="m 467.1747,256.74283 c -57.5245,0.006 -115.0489,0.0169 -172.5735,-0.003 -1.6291,-5.7e-4 -3.2584,-0.32436 -5.1251,-0.84615 57.1063,-0.30917 114.45,-0.2698 171.7937,-0.22911 1.6621,0.001 3.3242,0.0165 5.4504,0.33083 0.464,0.30558 0.4545,0.74734 0.4545,0.74734 z"
   id="path49" />
<path
   fill="#0cc830"
   opacity="1"
   stroke="none"
   d="m 467.5708,256.70136 c -0.3961,0.0415 -0.3866,-0.40029 -0.3894,-0.6212 0.386,-1.84134 0.8941,-3.4438 1.1417,-5.08553 0.7546,-5.00107 1.4086,-10.01727 2.4216,-15.2222 0.031,5.37078 -0.1188,10.94925 -0.6387,16.493 -0.1425,1.51833 -1.3955,2.93248 -2.5352,4.43593 z"
   id="path50" />
<path
   fill="#09c72c"
   opacity="1"
   stroke="none"
   d="m 262.7554,235.79253 c 0.033,5.18625 -0.1934,10.57193 -0.6147,15.94235 -0.1026,1.30837 -0.845,2.56654 -1.7024,3.90993 -0.027,-5.82948 0.3178,-11.72406 0.7863,-17.60878 0.057,-0.71054 0.7832,-1.36775 1.5308,-2.2435 z"
   id="path51" />
<path
   fill="#0cc830"
   opacity="1"
   stroke="none"
   d="m 498.0224,255.32621 c -0.4508,-1.15043 -1.6084,-2.66221 -1.7624,-4.2701 -0.5185,-5.41388 1.1492,-11.15407 -2.5214,-16.40961 1.2862,2.03133 3.0932,4.34555 3.4692,6.87267 0.6544,4.39798 0.4259,8.92734 0.8146,13.80704 z"
   id="path52" />
<path
   fill="#0cc830"
   opacity="1"
   stroke="none"
   d="m 493.4151,233.88817 c -6.8036,-1.33003 -13.7453,-2.19084 -21.0061,0.76338 6.4282,-5.41549 13.5542,-4.95523 21.0061,-0.76338 z"
   id="path53" />
<path
   fill="#040505"
   opacity="1"
   stroke="none"
   d="m 393.5633,719.76084 c 1.3846,-5.84229 3.0865,-11.83948 5.1396,-17.91529 1.0116,6.55939 -1.3085,12.33295 -5.1396,17.91529 z"
   id="path54" />
<path
   fill="#2cd352"
   opacity="1"
   stroke="none"
   d="m 551.6767,596.78739 c 2.9199,-6.10779 6.1316,-12.3852 9.6909,-18.7536 -2.9014,6.13397 -6.1503,12.359 -9.6909,18.7536 z"
   id="path55" />
<path
   fill="#09c72c"
   opacity="1"
   stroke="none"
   d="m 284.1187,233.37088 c -6.353,-0.61261 -12.9248,-1.58848 -19.6972,1.31177 5.8453,-5.29233 12.5895,-4.38638 19.6972,-1.31177 z"
   id="path56" />
<path
   fill="#00c61f"
   opacity="1"
   stroke="none"
   d="m 524.7412,256.82062 c -0.495,0.37796 -1.4165,0.95633 -2.3064,0.91132 -7.8946,-0.39936 -15.7838,-0.90915 -23.9585,-1.69504 8.4285,0.0259 17.1408,0.36047 26.2649,0.78372 z"
   id="path57" />
<path
   fill="#040505"
   opacity="1"
   stroke="none"
   d="m 399.115,697.33908 c -0.6555,-0.07 -1.6192,-0.46722 -1.7645,-1.06378 -1.1213,-4.60467 -2.0841,-9.24786 -3.0659,-14.28241 1.6538,4.70667 3.2774,9.81659 4.8304,15.34619 z"
   id="path58" />
<path
   fill="#040505"
   opacity="1"
   stroke="none"
   d="m 384.9013,672.59861 c -3.3705,-0.86969 -7.0064,-1.9751 -10.6747,-3.39814 3.4481,0.84235 6.9288,2.00232 10.6747,3.39814 z"
   id="path59" />
<path
   fill="#040505"
   opacity="1"
   stroke="none"
   d="m 375.5735,730.67209 c 3.1023,-1.64465 6.5831,-3.23175 10.4578,-4.76892 -3.0973,1.64209 -6.5883,3.23425 -10.4578,4.76892 z"
   id="path60" />
<path
   fill="#2cd352"
   opacity="1"
   stroke="none"
   d="m 562.8167,567.15451 c 0.4198,-0.28759 0.5885,-0.31225 1.0088,-0.38244 -0.3205,3.05835 -0.8926,6.16235 -1.597,9.62695 0.024,-2.75342 0.1806,-5.86743 0.5882,-9.24451 z"
   id="path61" />
<path
   fill="#040505"
   opacity="1"
   stroke="none"
   d="m 366.6007,731.7006 c 1.7812,-0.51227 3.9687,-0.95667 6.4035,-1.1009 -1.8343,0.58973 -3.9157,0.87922 -6.4035,1.1009 z"
   id="path62" />
<path
   fill="#06ca35"
   opacity="1"
   stroke="none"
   d="m 196.94717,582.25034 c 0.91559,1.20325 1.89331,2.75311 2.62366,4.61798 -1.01874,-1.21374 -1.7901,-2.74255 -2.62366,-4.61798 z"
   id="path63" />
<path
   fill="#2cd352"
   opacity="1"
   stroke="none"
   d="m 211.99209,603.53934 c 1.11286,0.51099 2.39929,1.26392 3.57678,2.3667 -1.20703,-0.47498 -2.30517,-1.29987 -3.57678,-2.3667 z"
   id="path64" />
<path
   fill="#2cd352"
   opacity="1"
   stroke="none"
   d="m 202.16787,589.95017 c 0.55176,1.18719 1.10352,2.37445 1.48535,3.86413 -0.97186,-0.89721 -1.77374,-2.09704 -2.33337,-3.61004 0.44421,-0.29346 0.64612,-0.27374 0.84802,-0.25409 z"
   id="path65" />
<path
   fill="#2cd352"
   opacity="1"
   stroke="none"
   d="m 544.951,604.03263 c 0.4816,-0.85303 1.2338,-1.82373 2.3498,-2.70905 -0.4504,0.92072 -1.2649,1.75604 -2.3498,2.70905 z"
   id="path66" />
<path
   fill="#2cd352"
   opacity="1"
   stroke="none"
   d="m 218.23709,608.14389 c 1.05951,0.26355 2.29638,0.79566 3.53869,1.69684 -1.11682,-0.23004 -2.23901,-0.82922 -3.53869,-1.69684 z"
   id="path67" />
<path
   fill="#09c72c"
   opacity="1"
   stroke="none"
   d="m 286.7212,236.38921 c -0.7622,-0.5233 -1.5513,-1.35285 -2.4101,-2.48454 0.7478,0.52465 1.5655,1.35148 2.4101,2.48454 z"
   id="path68" />
<path
   fill="#2cd352"
   opacity="1"
   stroke="none"
   d="m 208.88064,600.60642 c 0.87531,0.45581 1.88977,1.1759 2.87403,2.24328 -0.93177,-0.42822 -1.83326,-1.20367 -2.87403,-2.24328 z"
   id="path69" />
<path
   fill="#040505"
   opacity="1"
   stroke="none"
   d="m 386.6846,725.93558 c 0.4316,-0.66308 1.1777,-1.39795 2.3057,-2.11969 -0.4092,0.69135 -1.2004,1.36963 -2.3057,2.11969 z"
   id="path70" />
<path
   fill="#06ca35"
   opacity="1"
   stroke="none"
   d="m 202.0646,589.60666 c -0.0986,0.32386 -0.30054,0.30414 -0.80676,0.28284 -0.71179,-0.59229 -1.11939,-1.18298 -1.61664,-2.02173 0.71356,0.29974 1.51685,0.84753 2.4234,1.73889 z"
   id="path71" />
<path
   fill="#2cd352"
   opacity="1"
   stroke="none"
   d="m 216.00509,606.72239 c 0.5412,0.0261 1.27191,0.24621 2.0459,0.82214 -0.58997,0.0278 -1.22314,-0.30005 -2.0459,-0.82214 z"
   id="path72" />
<path
   fill="#040505"
   opacity="1"
   stroke="none"
   d="m 394.2984,681.36429 c -0.4843,-0.2182 -1.0369,-0.71606 -1.3659,-1.40069 0.5816,0.2492 0.9395,0.68518 1.3659,1.40069 z"
   id="path73" />
<path
   fill="#2cd352"
   opacity="1"
   stroke="none"
   d="m 542.6282,605.87839 c 0.23,-0.55115 0.7362,-1.18225 1.5903,-1.71765 -0.206,0.60974 -0.7599,1.12366 -1.5903,1.71765 z"
   id="path74" />
<path
   fill="#2cd352"
   opacity="1"
   stroke="none"
   d="m 203.83511,594.67661 c 0.63989,0.35882 1.40478,0.97857 2.14441,1.95593 -0.69,-0.32666 -1.35468,-1.0108 -2.14441,-1.95593 z"
   id="path75" />
<path
   fill="#2cd352"
   opacity="1"
   stroke="none"
   d="m 549.8499,598.97385 c 0.1051,-0.58337 0.4724,-1.29535 1.1955,-2.01843 -0.074,0.62249 -0.5035,1.25622 -1.1955,2.01843 z"
   id="path76" />
<path
   fill="#2cd352"
   opacity="1"
   stroke="none"
   d="m 548.1034,601.04441 c 0.1117,-0.53504 0.4522,-1.22168 1.1293,-1.9198 -0.076,0.58172 -0.488,1.17498 -1.1293,1.9198 z"
   id="path77" />
<path
   fill="#2cd352"
   opacity="1"
   stroke="none"
   d="m 206.90127,598.41245 c 0.55512,0.20135 1.20331,0.67047 1.78247,1.46997 -0.60913,-0.18042 -1.14923,-0.69135 -1.78247,-1.46997 z"
   id="path78" />
<path
   fill="#06ca35"
   opacity="1"
   stroke="none"
   d="m 197.71554,282.68329 c 0.12036,0.46451 -0.025,1.10169 -0.49481,1.85974 -0.13989,-0.48178 0.0445,-1.08441 0.49481,-1.85974 z"
   id="path79" />
<path
   fill="#06ca35"
   opacity="1"
   stroke="none"
   d="m 198.7933,280.74347 c 0.0851,0.45401 -0.0961,1.06989 -0.59882,1.79383 -0.10357,-0.47193 0.11451,-1.05195 0.59882,-1.79383 z"
   id="path80" />
<path
   fill="#0cc830"
   opacity="1"
   stroke="none"
   d="m 471.8437,234.6518 c 0.074,0.22235 -0.1204,0.53871 -0.5873,0.94429 -0.076,-0.22396 0.122,-0.53713 0.5873,-0.94429 z"
   id="path81" />
<path
   fill="#09c72c"
   opacity="1"
   stroke="none"
   d="m 263.851,234.66464 c 0.073,0.21659 -0.1165,0.53231 -0.5742,0.94419 -0.075,-0.21755 0.118,-0.53128 0.5742,-0.94419 z"
   id="path82" />
<path
   fill="#2cd352"
   opacity="1"
   stroke="none"
   d="m 206.00369,597.21097 c 0.22113,-0.0463 0.51056,0.15247 0.79846,0.62921 -0.24438,0.0572 -0.48724,-0.16345 -0.79846,-0.62921 z"
   id="path83" />
<path
   fill="#06ca35"
   opacity="1"
   stroke="none"
   d="m 199.21926,279.98441 c 0.25092,0.0116 0.37226,0.21753 0.46491,0.43564 0.006,0.0149 -0.20429,0.12185 -0.50714,0.20834 -0.19318,0.0223 -0.0941,-0.44678 0.0422,-0.64398 z"
   id="path84" />











<path
   fill="#fbfbfb"
   opacity="1"
   stroke="none"
   d="m 249.1966,595.98325 c -19.33128,-2.76587 -31.03172,-13.65656 -34.56547,-32.69995 -0.31561,-3.92438 -0.43182,-7.08637 -0.43243,-10.24841 -0.0146,-75.43522 -0.0169,-150.8704 0.44171,-226.39005 91.01439,-0.0827 181.56559,-0.0693 272.11669,-0.0892 17.8019,-0.004 35.6036,-0.13632 53.7405,-0.13358 0.791,0.11054 1.2472,0.14527 1.7032,0.17999 0.087,8.73139 0.1734,17.46277 0.3035,27.0243 0.1002,1.61746 0.1571,2.40478 0.08,3.62399 -0.032,3.43167 0.069,6.43149 0.08,9.81918 -0.032,1.17768 0.028,1.96747 -0.054,3.17563 -0.05,2.76013 0.041,5.10187 0.041,7.83005 -0.029,1.17306 0.033,1.95969 -0.043,3.13654 -0.048,1.75283 0.042,3.11544 0.042,4.91534 -0.028,2.51181 0.034,4.58636 -0.019,6.89947 -0.037,0.39689 0.041,0.55527 0.026,1.1684 -0.033,4.17828 0.027,7.90185 -0.051,12.01575 -0.041,1.75149 0.055,3.1127 0.057,4.93176 -0.034,4.1973 0.028,7.93677 -0.053,12.02228 -0.046,1.07385 0.05,1.80163 0.053,2.96692 -0.038,2.5187 0.017,4.59991 -0.069,7.02899 -0.051,1.08017 0.039,1.8125 0.042,2.98321 -0.026,2.51779 0.034,4.59723 -0.041,7.12216 -0.041,6.10398 0.054,11.76243 0.06,17.80356 -0.029,1.16141 0.032,1.94019 -0.024,2.95679 -0.04,0.39713 0.036,0.55643 0.02,1.14996 -0.04,2.50147 0.012,4.5687 -0.067,7.08344 -0.036,6.10843 0.06,11.76935 0.068,17.78192 -0.029,0.82755 0.029,1.30344 -0.051,2.2211 -0.053,4.77319 0.031,9.10458 0.027,13.87271 -0.025,2.50751 0.039,4.57834 0,6.89057 -0.025,0.39752 0.055,0.55377 0.043,1.169 -0.038,5.17572 0.017,9.8924 -0.063,14.91803 -0.039,0.73743 0.057,1.16596 0.061,2.04663 -0.02,3.5282 0.052,6.60419 -0.023,10.07813 -0.046,2.07562 0.055,3.75336 0.059,5.86706 -0.031,2.21979 0.035,4.00348 0.1006,5.78724 -1.5764,7.56286 -2.026,15.60229 -4.978,22.58349 -5.1807,12.25171 -15.0862,19.51923 -28.5997,21.14728 -1.3833,0.16662 -2.8524,-0.37915 -5.0747,-0.66339 -1.8488,-0.0187 -2.9045,0.0316 -4.4211,-0.0104 -8.473,0.0241 -16.4852,0.14044 -24.8781,0.17981 -1.1514,-0.0223 -1.9223,0.0323 -3.1211,-0.03 -2.7841,-0.0394 -5.1402,0.0383 -7.9134,0.0339 -1.8294,-0.0327 -3.2418,0.0166 -5.1075,-0.0522 -8.7957,-0.0398 -17.1379,0.0385 -25.9166,0.039 -2.4999,-0.0294 -4.5636,0.019 -7.0811,-0.0493 -7.1311,-0.0403 -13.8083,0.0361 -20.8871,0.0364 -1.4863,-0.0269 -2.571,0.0224 -4.1102,-0.0431 -6.7982,-0.0337 -13.1421,0.0473 -19.9143,0.0518 -2.1639,-0.0254 -3.8995,0.0255 -6.0887,-0.0422 -14.7974,-0.0424 -29.1414,0.0338 -43.8644,0.0353 -1.1463,-0.0184 -1.9134,0.0379 -3.0391,-0.0239 -1.1008,-0.0416 -1.8431,0.0348 -3.0023,0.033 -1.8261,-0.0236 -3.2351,0.0309 -5.0973,-0.034 -13.7953,-0.0433 -27.1375,0.0327 -40.8816,0.0318 -1.4878,-0.0276 -2.5737,0.0217 -4.1084,-0.0459 -4.4627,-0.0378 -8.4768,0.0414 -12.8696,0.0438 -1.1464,-0.0279 -1.9142,0.0208 -3.0954,-0.0475 -2.1236,-0.0653 -3.8339,-0.0135 -5.9404,-0.0394 -1.47,-0.0662 -2.5437,-0.0546 -3.6175,-0.0431 M 291.2116,386.5186 c -0.2744,0.21246 -0.4356,0.4906 -0.1661,0.95196 0,0 -0.2911,-0.17258 -0.8509,0.12778 -0.7765,1.02447 -1.553,2.04895 -2.7367,3.19031 -0.2397,0.1936 -0.3496,0.44418 -0.9192,1.0964 -0.6525,0.93173 -1.305,1.86347 -2.2723,2.94785 -0.158,0.19583 -0.2096,0.41653 -0.6842,0.97757 -0.2981,0.53103 -0.5963,1.0621 -0.791,1.69638 0,0 -0.014,-0.14551 -0.487,0.1199 -0.128,0.33749 -0.2561,0.67502 -0.2552,1.02631 0,0 -0.04,-0.12338 -0.5542,0.16314 -0.2758,0.51444 -0.5517,1.02887 -0.7731,1.69379 0,0 0.033,-0.15671 -0.4373,0.11115 -0.1257,0.33648 -0.2513,0.67297 -0.2453,1.02609 0,0 -0.04,-0.12641 -0.5814,0.22259 -0.4701,0.94989 -0.9401,1.89975 -1.3199,2.84613 0,0 -0.024,-0.087 -0.5435,0.2489 -0.22,0.57178 -0.44,1.14353 -0.5223,1.71811 0,0 -0.039,-0.13198 -0.6186,0.24836 -4.0084,10.59994 -8.0169,21.19989 -12.2643,32.60275 -5.7837,31.21384 -0.2407,60.15491 17.9915,86.26996 19.9377,28.55816 47.4056,44.79437 82.8747,48.9826 11.3632,-0.39789 22.7262,-0.79577 34.8853,-1.1134 1.4546,-0.29358 2.9172,-0.55249 4.3625,-0.88605 23.1205,-5.33557 43.1962,-15.95929 59.1937,-34.05591 0,0 0.095,-0.18219 0.2721,-0.31604 0,0 0.1241,-0.18426 0.5667,-0.52722 0.4188,-0.61774 0.8378,-1.23547 1.1224,-1.88183 0,0 0.076,0.1145 0.599,-0.16883 0.445,-0.6477 0.8899,-1.29547 1.2332,-1.98755 0,0 0.04,0.10309 0.6014,-0.19531 0.573,-0.87335 1.146,-1.74664 1.5615,-2.69305 0,0 0.019,0.17279 0.5246,-0.0708 0.1592,-0.33521 0.3185,-0.67035 0.3532,-1.01819 0,0 0.04,0.11877 0.629,-0.21784 1.8269,-2.92706 3.6538,-5.85412 5.3614,-8.79754 0,0 0.031,0.11633 0.6091,-0.2558 0.4833,-1.26422 0.9665,-2.52838 1.338,-3.7959 0,0 0.022,0.10956 0.5505,-0.0971 0.3148,-0.45813 0.6297,-0.91626 0.9311,-1.47809 0,0 0.01,-0.10436 0.3987,-0.40966 0.086,-0.32178 0.1716,-0.6435 0.1509,-0.97302 0,0 0.032,0.1018 0.6129,-0.29706 1.4952,-3.56977 2.9905,-7.13953 4.378,-10.71701 0,0 0.028,0.10437 0.5851,-0.36737 8.7378,-23.55094 10.1143,-47.43039 3.2324,-72.43671 -11.2354,-35.16593 -33.9265,-59.8313 -68.6282,-74.40097 -6.4235,-1.67548 -12.8468,-3.35098 -19.2635,-4.91992 0,0 0.104,-0.0239 -0.3218,-0.71708 -1.897,-0.12509 -3.794,-0.25018 -5.6818,-0.27499 0,0 0.098,-0.0239 -0.3279,-0.70938 -11.0547,-0.0626 -22.2291,-1.15018 -33.1278,0.12289 -9.4177,1.10004 -18.5221,4.88297 -27.6414,7.49546 0,0 -0.028,-0.12131 -0.7651,-0.005 -5.122,2.66693 -10.2438,5.33386 -15.2432,8.03021 0,0 -0.012,-0.12543 -0.5419,-0.005 -0.2518,0.22757 -0.5036,0.45511 -0.8249,0.58231 0,0 -0.122,-0.003 -0.6393,0.24829 -0.6297,0.45059 -1.2596,0.90115 -2.5515,1.50281 -7.1431,6.25339 -14.286,12.50674 -21.6721,18.83636 0,0 -0.1139,0.22779 -0.1732,0.36261 0,0 -0.046,0.13993 -0.4928,0.34104 z"
   id="path96" />
<path
   fill="#05cd38"
   opacity="1"
   stroke="none"
   d="m 214.17727,326.72928 c 0.005,75.43521 0.007,150.87039 0.0214,226.30561 6.1e-4,3.16204 0.11682,6.32403 0.21038,9.93054 -0.71844,-1.62476 -1.98016,-3.66114 -2.11535,-5.76984 -0.31891,-4.97491 -0.10065,-9.98431 -0.10071,-14.97974 -0.001,-70.10281 -0.0129,-140.20565 0.0486,-210.30841 0.002,-1.99435 0.78095,-3.98803 1.58203,-6.07013 0.38446,-0.0881 0.40058,-0.0902 0.36792,0.15436 -0.0326,0.24454 -0.0143,0.73761 -0.0143,0.73761 z"
   id="path97" />
<path
   fill="#00c61f"
   opacity="1"
   stroke="none"
   d="m 542.7183,356.81851 c -0.057,-0.78735 -0.1138,-1.57467 -0.078,-2.74777 0.092,-8.97427 0.092,-17.5628 0.092,-26.15133 0.3906,0.002 0.7812,0.003 1.1719,0.005 0,77.57895 0,155.1579 0,232.73688 -0.2505,0.0112 -0.5009,0.0225 -0.7514,0.0338 0,-2.37671 0,-4.75347 -0.1744,-7.46631 -0.2404,-2.11987 -0.3062,-3.90356 -0.1082,-6.41296 0.1494,-2.47552 0.035,-4.22546 -0.079,-5.97534 -0.072,-3.07605 -0.1448,-6.15204 0.032,-9.83698 0.1386,-1.13891 0.028,-1.66882 -0.082,-2.19879 -0.055,-4.71673 -0.1096,-9.43341 0.05,-14.70306 0.3483,-0.88654 0.2572,-1.14105 -0.059,-1.31647 -0.064,-2.07083 -0.1278,-4.14166 0.095,-6.9982 0.1622,-5.17895 0.038,-9.5722 -0.087,-13.96545 -0.058,-0.47589 -0.1162,-0.95178 0.1065,-2.13382 0.1436,-6.42905 0.01,-12.15198 -0.1305,-17.87494 -0.052,-2.06723 -0.1044,-4.13446 0.061,-6.72595 0.3636,-0.85355 0.2817,-1.11139 -0.029,-1.29776 -0.061,-0.77878 -0.1214,-1.55756 0.099,-3.07444 0.149,-6.45657 0.017,-12.17507 -0.1143,-17.89358 -0.061,-2.07944 -0.1216,-4.15888 0.08,-6.87656 0.1496,-1.4692 0.036,-2.30017 -0.077,-3.13116 -0.055,-2.08124 -0.11,-4.16245 0.095,-6.88361 0.1473,-1.46347 0.034,-2.28698 -0.079,-3.1105 -0.061,-3.73947 -0.1227,-7.47894 0.085,-11.94296 0.1482,-2.16819 0.027,-3.61176 -0.093,-5.05536 -0.059,-3.72358 -0.1188,-7.44715 0.038,-11.71653 0.3587,-0.87554 0.2749,-1.13223 -0.036,-1.31582 -0.062,-2.07459 -0.1234,-4.14914 0.082,-6.92581 0.1508,-2.14829 0.034,-3.59449 -0.082,-5.04068 -0.062,-0.78665 -0.1245,-1.57328 0.09,-3.06189 0.1561,-3.11228 0.036,-5.52259 -0.084,-7.93286 -0.06,-0.7898 -0.1189,-1.57959 0.097,-3.09278 0.14,-3.78744 0,-6.8515 -0.1307,-9.91553 z"
   id="path98" />
<path
   fill="#00c61f"
   opacity="1"
   stroke="none"
   d="m 542.0669,326.22971 c -0.3221,0.33765 -0.7783,0.30292 -1.9125,-0.0331 -19.3249,-0.37454 -37.9719,-0.51044 -56.6187,-0.51041 -89.7705,1.8e-4 -179.541,0.0371 -269.31149,0.0609 0,0 -0.0161,0.002 -0.002,-0.008 1.74578,-0.32785 3.47784,-0.92322 5.21008,-0.92398 105.64541,-0.0458 211.29081,-0.0484 316.93621,7.6e-4 1.8551,8.6e-4 3.7101,0.67911 5.6988,1.4137 z"
   id="path99" />
<path
   fill="#00c823"
   opacity="1"
   stroke="none"
   d="m 275.1681,596.1865 c 1.0861,-0.0493 2.172,-0.0987 4.005,0.14831 7.5575,0.36273 14.3693,0.53565 21.1785,0.46485 6.605,-0.0686 13.2075,-0.38758 19.811,-0.59656 1.4091,-0.0546 2.8181,-0.10907 4.8428,0.10705 1.4645,0.1446 2.3134,0.0186 3.1622,-0.10742 0.7672,-0.0563 1.5343,-0.11249 3.0251,0.12683 9.8654,0.36365 19.008,0.51801 28.1492,0.46655 5.2758,-0.0297 10.5495,-0.39172 15.8241,-0.60418 1.7358,-0.051 3.4714,-0.10193 5.9804,0.14264 7.1901,0.14502 13.6068,-0.006 20.0235,-0.15613 1.0849,-0.0493 2.1696,-0.0986 4.0003,0.14929 7.4961,0.15125 14.2463,0.005 20.9966,-0.1405 2.0636,-0.0485 4.1273,-0.0969 6.973,0.15039 9.1962,0.15094 17.6101,0.006 26.0242,-0.1388 1.4123,-0.0493 2.8247,-0.0986 4.9627,0.14118 3.1614,0.15143 5.5972,0.0137 8.0329,-0.12396 0.7707,-0.0547 1.5416,-0.10938 3.0396,0.12915 8.8156,0.0942 16.904,-0.10474 24.9924,-0.30371 1.0557,-0.0503 2.1114,-0.10059 3.5614,-0.10169 -1.4485,0.63733 -3.2903,1.73761 -5.1336,1.73969 -77.361,0.0858 -154.7222,0.0737 -232.0832,0.073 -4.9911,0 -9.9833,0.0493 -14.972,-0.0602 -0.8714,-0.0191 -1.7278,-0.71728 -2.4793,-1.40539 1.1855,-0.31513 2.2592,-0.32672 4.0011,-0.041 2.4727,0.17719 4.2773,0.0571 6.0819,-0.0629 0.7678,-0.0488 1.5356,-0.0976 3.0201,0.14892 4.8046,0.14844 8.8923,0.002 12.9801,-0.14538 z"
   id="path100" />
<path
   fill="#fafafa"
   opacity="1"
   stroke="none"
   d="m 348.2032,686.93625 c 0.4403,-1.36957 0.8925,-3.0296 1.3189,-3.02295 6.4406,0.0998 13.0243,-0.33807 19.2788,0.87482 8.0734,1.56561 11.7238,9.08173 10.3318,18.76599 -1.0909,7.59003 -6.411,12.11621 -14.4242,12.19263 -4.9804,0.0475 -9.9619,0.006 -14.9428,-0.006 -0.3165,-7.3e-4 -0.6326,-0.0978 -1.5625,-0.25146 0,-9.28455 0,-18.67633 0,-28.55286 z"
   id="path101" />
<path
   fill="#f9f9f9"
   opacity="1"
   stroke="none"
   d="m 210.18795,720.7518 c -5.30237,1.3e-4 -10.1062,1.3e-4 -14.86938,1.3e-4 -1.34168,-8.80256 6.6347,-14.62629 12.47559,-15.01282 10.36071,-0.68555 15.66998,3.73035 17.23205,15.01263 -4.81799,0 -9.57886,0 -14.83826,6e-5 z"
   id="path102" />
<path
   fill="#f9f9f9"
   opacity="1"
   stroke="none"
   d="m 296.7842,743.31955 c -5.4813,5.36585 -11.6188,6.02393 -18.1658,3.59583 -7.5107,-2.78559 -9.4538,-9.4798 -10.1058,-16.36432 -0.3969,-4.19055 0.1849,-8.68115 1.3129,-12.76459 2.1938,-7.94165 7.5011,-11.31769 16.0272,-11.14728 8.0524,0.16083 12.2987,3.29731 14.4582,11.59137 2.2423,8.612 2.0232,17.09601 -3.5267,25.08899 z"
   id="path103" />
<path
   fill="#fbfbfa"
   opacity="1"
   stroke="none"
   d="m 652.5696,744.20975 c -11.9119,8.67413 -25.4205,2.64777 -27.1725,-11.99792 -0.4811,-4.02112 -0.1642,-8.33381 0.7532,-12.28852 2.5182,-10.85742 9.9641,-15.69067 20.6267,-12.85736 3.4114,0.90644 7.5419,3.91309 8.8584,7.01386 4.3169,10.16742 4.6812,20.53326 -3.0658,30.12994 z"
   id="path104" />
<path
   fill="#f9f9f9"
   opacity="1"
   stroke="none"
   d="m 455.2772,729.56406 c -0.6967,13.37518 -7.9715,19.95807 -19.6561,18.2298 -7.4701,-1.10492 -12.6883,-7.59839 -13.2511,-17.3963 -0.2336,-4.07099 0.1776,-8.34675 1.2122,-12.28882 2.3061,-8.78669 8.6974,-12.42194 18.7411,-11.3468 6.9917,0.74847 12.0986,6.80822 12.8298,15.37054 0.1974,2.31116 0.1034,4.6471 0.1241,7.43158 z"
   id="path105" />









<path
   fill="#14cf4b"
   opacity="1"
   stroke="none"
   d="m 421.1667,355.91086 c 34.0131,14.28708 56.7042,38.95245 67.6606,74.75781 -0.3106,1.60843 -0.5834,2.64377 -0.3381,3.53678 5.253,19.12903 4.1928,38.19995 -0.4114,57.25131 -0.9247,3.82596 -1.8408,7.6539 -2.761,11.48093 0,0 -0.028,-0.10437 -0.321,0.001 -1.7505,3.74054 -3.2079,7.37534 -4.6655,11.01007 0,0 -0.032,-0.1018 -0.2482,0.0101 -0.2535,0.46344 -0.2909,0.81495 -0.3284,1.16639 0,0 -0.01,0.10436 -0.3408,0.087 -0.5983,0.55579 -0.8612,1.12897 -1.1241,1.70215 0,0 -0.022,-0.10956 -0.2802,0.0479 -0.7249,1.44184 -1.1916,2.7262 -1.6581,4.01056 0,0 -0.031,-0.11633 -0.3157,-0.0273 -2.0786,3.0744 -3.8723,6.05975 -5.6661,9.04516 0,0 -0.04,-0.11877 -0.263,-0.0211 -0.3609,0.45319 -0.4983,0.80866 -0.6357,1.16407 0,0 -0.019,-0.17279 -0.3035,-0.11707 -0.8025,1.01575 -1.32,1.97571 -1.8376,2.93573 0,0 -0.04,-0.10309 -0.3555,-0.0818 -0.6907,0.76404 -1.066,1.50684 -1.4415,2.24958 0,0 -0.076,-0.1145 -0.3637,-0.0864 -0.6176,0.75098 -0.9473,1.47382 -1.2769,2.19672 0,0 -0.1241,0.18426 -0.3547,0.0884 -0.3665,-0.11652 -0.5023,-0.13721 -0.6381,-0.1579 0.1331,0.2088 0.2662,0.41754 0.3994,0.62634 -15.8003,18.04004 -35.876,28.66376 -58.9965,33.99933 -1.4453,0.33356 -2.9079,0.59247 -5.0611,0.58692 -10.0722,-0.0754 -19.4469,0.10571 -28.818,0.40521 -2.0741,0.0662 -4.1349,0.55066 -6.2018,0.84259 -34.636,-4.0235 -62.1039,-20.25971 -82.0416,-48.81787 -18.2322,-26.11505 -23.7752,-55.05612 -17.5274,-86.74585 0.8822,-1.13379 1.4252,-1.74375 1.6997,-2.457 3.3629,-8.73856 6.7127,-17.48252 9.9898,-26.25351 0.4431,-1.18595 0.4702,-2.52732 0.6899,-3.79669 0,0 0.039,0.13198 0.278,0.0101 0.4265,-0.72532 0.6146,-1.32871 0.8027,-1.9321 0,0 0.024,0.087 0.3103,-0.0221 0.7157,-1.10144 1.1455,-2.09372 1.5752,-3.086 0,0 0.04,0.12641 0.2656,0.0289 0.3134,-0.46383 0.4015,-0.83014 0.4898,-1.19641 0,0 -0.033,0.15671 0.2944,0.0805 0.5382,-0.68549 0.7494,-1.2948 0.9606,-1.90411 0,0 0.04,0.12338 0.263,0.0238 0.3174,-0.46378 0.4114,-0.82794 0.5054,-1.19214 0,0 0.014,0.14551 0.3191,0.0715 0.5419,-0.69528 0.7782,-1.31656 1.0145,-1.93783 -0.054,-0.24558 0,-0.46628 0.6889,-0.81058 1.1318,-1.147 1.7301,-2.14554 2.3283,-3.14407 -0.02,-0.30753 0.09,-0.55811 0.898,-0.81369 1.2883,-1.18421 2.0082,-2.30646 2.728,-3.42869 0,0 0.2911,0.17258 0.4519,0.13611 0.258,-0.39654 0.3551,-0.75656 0.4522,-1.11657 0,-3e-5 0.046,-0.13996 0.2329,-0.0543 0.3253,0.0984 0.4635,0.11123 0.6017,0.12402 -0.1242,-0.21619 -0.2483,-0.43237 -0.3725,-0.64856 7.1431,-6.25333 14.286,-12.50668 21.9514,-18.59448 1.1972,-0.52961 1.8719,-1.22483 2.5465,-1.92011 0,0 0.122,0.003 0.4531,0.0985 0.5617,-0.20254 0.7926,-0.50015 1.0234,-0.79776 -10e-5,-3e-5 0.012,0.1254 0.3293,0.12869 5.4324,-2.71426 10.5475,-5.43185 15.6628,-8.14947 0,0 0.028,0.12131 0.3868,0.16077 1.6483,-0.17832 2.943,-0.37238 4.2279,-0.61759 10.9844,-2.09607 21.9,-4.7399 32.9733,-6.12033 7.7674,-0.96829 15.7494,-0.21753 23.6355,-0.23443 0,0 -0.098,0.0239 0.1358,0.29461 2.1138,0.41297 3.9939,0.55521 5.8739,0.69748 0,0 -0.104,0.0239 0.1053,0.28635 5.5299,1.85971 10.8342,3.5169 16.1854,5.00461 1.0952,0.30447 2.3669,-0.0265 3.5574,-0.0645 m 30.7077,164.58997 c 0,0 -0.1334,-0.0851 0.4916,-0.0967 0.078,-0.35687 0.1555,-0.71381 0.2897,-1.15784 0,0 -0.014,-0.10272 0.662,0.0631 0.2423,-0.58282 0.4847,-1.16571 0.7559,-1.64801 0,0 -0.098,-0.0378 0.6492,-0.0314 0.4749,-1.00373 0.9497,-2.00745 1.4515,-3.43482 0.082,-0.3117 0.2814,-0.49115 1.2427,-0.74261 0.239,-0.59821 0.478,-1.19638 0.7493,-1.7225 0,0 -0.079,-0.004 0.4309,-0.24341 0.1435,-0.33765 0.287,-0.67533 0.4525,-0.8295 0,0 -0.1824,-0.0296 0.4481,-0.22833 0.2075,-0.59626 0.4149,-1.19248 0.646,-1.71116 0,0 -0.081,0.005 0.438,-0.25238 0.093,-0.3594 0.1852,-0.71881 0.2615,-0.92367 0,0 -0.114,-0.10565 0.6444,-0.11246 0.8372,-1.96674 1.6742,-3.9335 2.5405,-5.7684 0,0 -0.1324,-0.0265 0.5897,-0.19187 0.3713,-0.32583 0.9108,-0.57833 1.0893,-0.98809 10.0986,-23.19663 11.032,-46.75302 2.576,-70.61405 -0.4218,-1.19049 -1.7704,-2.05255 -3.0916,-3.69665 -5.3323,-8.32144 -9.7951,-17.38932 -16.17,-24.81562 -15.3232,-17.85034 -35.3819,-27.87167 -59.0011,-32.78213 -8.5877,-1.81522 -17.2229,-1.89383 -25.8123,-0.24374 -3.0561,0.58706 -5.96,1.96609 -9.5313,3.371 -35.6089,9.37048 -58.3586,31.93112 -69.5017,67.27838 -0.5753,1.1496 -1.4296,2.24112 -1.683,3.45776 -2.7668,13.28586 -3.026,26.64633 0.1766,39.84152 1.2084,4.97858 3.8798,9.60206 6.3893,14.84556 0.9576,2.10223 1.7963,4.26855 2.8905,6.29699 13.6663,25.33316 34.752,41.19364 62.5928,49.48056 1.0212,0.50122 2.0238,1.39356 3.0665,1.443 10.2297,0.48535 20.4645,0.9992 30.7016,1.08471 2.2827,0.019 4.5793,-1.60748 7.6329,-2.70489 16.4216,-3.2406 30.8019,-10.72669 44.4205,-21.22113 0.2546,-0.31745 0.509,-0.63489 0.7533,-0.8244 0,0 -0.1211,-0.0426 0.5849,-0.034 0.4613,-0.68384 0.9226,-1.36768 1.4125,-1.94812 0,0 -0.1072,-0.002 0.4202,-0.19013 0.1966,-0.30645 0.3932,-0.61285 0.5909,-0.81793 0,0 -0.097,-0.0284 0.587,-0.0297 0.2332,-0.47528 0.4662,-0.95056 0.8341,-1.5351 0,0 0.1082,-0.13574 0.7316,0.14039 0.2717,-0.55207 0.5434,-1.10413 0.8421,-1.56128 0,0 -0.099,-6.8e-4 0.4242,-0.20496 0.1884,-0.31342 0.3767,-0.62683 0.5785,-0.8009 0,0 -0.1391,-0.0154 0.4047,-0.20783 0.18,-0.32721 0.3602,-0.65442 0.5608,-0.82312 0,0 -0.1582,-0.0217 0.409,-0.19842 0.1702,-0.34229 0.3404,-0.68457 0.5356,-0.84644 0,0 -0.1781,-0.038 0.4207,-0.18237 0.1305,-0.36408 0.2609,-0.72821 0.4214,-0.93695 z"
   id="path115" />
<path
   fill="#16d04d"
   opacity="1"
   stroke="none"
   d="m 214.19155,325.99167 c 89.80315,-0.2684 179.57365,-0.30527 269.34415,-0.30545 18.6468,-3e-5 37.2938,0.13587 56.2838,0.43454 -17.4588,0.29859 -35.2605,0.431 -53.0624,0.43491 -90.5511,0.0199 -181.1023,0.006 -272.11669,0.0892 -0.46314,0.0844 -0.48145,-0.40863 -0.44886,-0.65317 z"
   id="path116" />
<path
   fill="#10c834"
   opacity="1"
   stroke="none"
   d="m 485.5954,502.70182 c 0.6416,-3.59116 1.5577,-7.4191 2.4824,-11.24506 4.6042,-19.05136 5.6644,-38.12228 0.4114,-57.25131 -0.2453,-0.89301 0.027,-1.92835 0.3214,-3.15839 7.1776,23.9885 5.8011,47.86795 -3.2152,71.65476 z"
   id="path117" />
<path
   fill="#0cc830"
   opacity="1"
   stroke="none"
   d="m 395.096,349.34961 c -7.6732,0.35965 -15.6552,-0.39111 -23.4226,0.57718 -11.0733,1.38043 -21.9889,4.02426 -32.9733,6.12033 -1.2849,0.24521 -2.5796,0.43927 -4.2898,0.60977 8.8229,-2.64413 17.9273,-6.42706 27.345,-7.5271 10.8987,-1.27307 22.0731,-0.18554 33.3407,0.21982 z"
   id="path118" />
<path
   fill="#10c834"
   opacity="1"
   stroke="none"
   d="m 364.637,574.7042 c 1.6504,-0.37433 3.7112,-0.85877 5.7853,-0.92499 9.3711,-0.2995 18.7458,-0.48065 28.42,-0.44537 -11.0625,0.65692 -22.4255,1.0548 -34.2053,1.37036 z"
   id="path119" />
<path
   fill="#0cc830"
   opacity="1"
   stroke="none"
   d="m 276.7412,406.74106 c 0.07,1.07919 0.043,2.42056 -0.4002,3.60651 -3.2771,8.77099 -6.6269,17.51495 -9.9898,26.25351 -0.2745,0.71325 -0.8175,1.32321 -1.5803,2.05557 3.6639,-10.52554 7.6724,-21.12549 11.9703,-31.91559 z"
   id="path120" />
<path
   fill="#16d04d"
   opacity="1"
   stroke="none"
   d="m 374.7126,596.07328 c -4.8212,0.33111 -10.0949,0.69317 -15.3707,0.72283 -9.1412,0.0515 -18.2838,-0.1029 -27.7701,-0.39184 13.9994,-0.29718 28.3434,-0.37341 43.1408,-0.33099 z"
   id="path121" />
<path
   fill="#16d04d"
   opacity="1"
   stroke="none"
   d="m 319.7095,596.08371 c -6.1504,0.32837 -12.7529,0.64734 -19.3579,0.71595 -6.8092,0.0708 -13.621,-0.10212 -20.7767,-0.38788 12.9971,-0.29547 26.3393,-0.37146 40.1346,-0.32807 z"
   id="path122" />
<path
   fill="#0cc830"
   opacity="1"
   stroke="none"
   d="m 420.8223,355.76956 c -0.8461,0.17939 -2.1178,0.51032 -3.213,0.20585 -5.3512,-1.48771 -10.6555,-3.1449 -16.1889,-5.0579 6.2109,1.35978 12.6342,3.03528 19.4019,4.85205 z"
   id="path123" />
<path
   fill="#16d04d"
   opacity="1"
   stroke="none"
   d="m 458.7106,596.08072 c -7.9607,0.263 -16.3746,0.40784 -25.1344,0.33478 7.9965,-0.29627 16.3387,-0.37457 25.1344,-0.33478 z"
   id="path124" />
<path
   fill="#0cc830"
   opacity="1"
   stroke="none"
   d="m 333.7171,356.56192 c -4.747,2.65964 -9.8621,5.37723 -15.3557,8.07682 4.7436,-2.68497 9.8654,-5.3519 15.3557,-8.07682 z"
   id="path125" />
<path
   fill="#16d04d"
   opacity="1"
   stroke="none"
   d="m 499.7307,595.94925 c -7.6275,0.2912 -15.7159,0.49011 -24.1508,0.47284 7.6656,-0.33246 15.6778,-0.44879 24.1508,-0.47284 z"
   id="path126" />
<path
   fill="#16d04d"
   opacity="1"
   stroke="none"
   d="m 425.7129,596.07041 c -6.2964,0.26269 -13.0466,0.40857 -20.1412,0.33349 6.3329,-0.29742 13.0101,-0.37384 20.1412,-0.33349 z"
   id="path127" />
<path
   fill="#16d04d"
   opacity="1"
   stroke="none"
   d="m 400.7156,596.06369 c -5.9624,0.26532 -12.3791,0.4159 -19.1409,0.34729 5.9988,-0.30004 12.3427,-0.38104 19.1409,-0.34729 z"
   id="path128" />
<path
   fill="#16d04d"
   opacity="1"
   stroke="none"
   d="m 542.5847,472.2598 c 0.2684,5.27545 0.4054,10.99838 0.3489,17.0758 -0.2892,-5.30645 -0.3846,-10.96737 -0.3489,-17.0758 z"
   id="path129" />
<path
   fill="#10c834"
   opacity="1"
   stroke="none"
   d="m 480.6206,513.74979 c 1.1673,-3.43533 2.6247,-7.07013 4.429,-10.80682 -1.1483,3.46783 -2.6436,7.03759 -4.429,10.80682 z"
   id="path130" />
<path
   fill="#16d04d"
   opacity="1"
   stroke="none"
   d="m 542.5963,443.26605 c 0.268,5.27302 0.3997,10.99152 0.3405,17.06547 -0.2861,-5.30304 -0.3815,-10.96149 -0.3405,-17.06547 z"
   id="path131" />
<path
   fill="#10c834"
   opacity="1"
   stroke="none"
   d="m 470.6634,529.82285 c 1.4991,-2.81714 3.2928,-5.80249 5.4311,-8.86865 -1.4825,2.84619 -3.3094,5.77325 -5.4311,8.86865 z"
   id="path132" />
<path
   fill="#16d04d"
   opacity="1"
   stroke="none"
   d="m 542.6023,492.26282 c 0.2624,3.95148 0.387,8.34473 0.3136,13.08701 -0.2823,-3.98243 -0.3668,-8.31382 -0.3136,-13.08701 z"
   id="path133" />
<path
   fill="#16d04d"
   opacity="1"
   stroke="none"
   d="m 274.7195,596.06955 c -3.6392,0.26386 -7.7269,0.41077 -12.1528,0.33911 3.676,-0.29772 7.6901,-0.37689 12.1528,-0.33911 z"
   id="path134" />
<path
   fill="#16d04d"
   opacity="1"
   stroke="none"
   d="m 542.5845,357.25037 c 0.2692,2.63217 0.4045,5.69623 0.3555,9.09579 -0.286,-2.6643 -0.3876,-5.66412 -0.3555,-9.09579 z"
   id="path135" />
<path
   fill="#16d04d"
   opacity="1"
   stroke="none"
   d="m 542.6103,370.24518 c 0.2618,1.99191 0.382,4.40222 0.3173,7.12808 -0.2763,-2.02621 -0.3676,-4.36795 -0.3173,-7.12808 z"
   id="path136" />
<path
   fill="#16d04d"
   opacity="1"
   stroke="none"
   d="m 471.7315,596.09897 c -2.0076,0.25476 -4.4434,0.39246 -7.1877,0.32306 2.0475,-0.28479 4.4036,-0.36249 7.1877,-0.32306 z"
   id="path137" />
<path
   fill="#16d04d"
   opacity="1"
   stroke="none"
   d="m 542.6443,541.23789 c 0.2615,1.35199 0.3757,3.10193 0.3233,5.14148 -0.2682,-1.38812 -0.3693,-3.06586 -0.3233,-5.14148 z"
   id="path138" />
<path
   fill="#16d04d"
   opacity="1"
   stroke="none"
   d="m 258.7545,596.06583 c -1.3912,0.23712 -3.1958,0.35718 -5.2724,0.25769 1.4385,-0.27124 3.1488,-0.32306 5.2724,-0.25769 z"
   id="path139" />
<path
   fill="#0cc830"
   opacity="1"
   stroke="none"
   d="m 401.1057,350.33786 c -1.6671,0.20432 -3.5472,0.0621 -5.6656,-0.40103 1.6587,-0.19574 3.5557,-0.0707 5.6656,0.40103 z"
   id="path140" />
<path
   fill="#0cc830"
   opacity="1"
   stroke="none"
   d="m 290.4728,387.44803 c -0.4399,0.97208 -1.1598,2.09433 -2.2445,3.22009 0.4116,-1.02093 1.1881,-2.04541 2.2445,-3.22009 z"
   id="path141" />
<path
   fill="#16d04d"
   opacity="1"
   stroke="none"
   d="m 542.6072,406.21073 c 0.2579,1.05328 0.3787,2.49685 0.3257,4.20718 -0.2703,-1.09448 -0.3666,-2.45569 -0.3257,-4.20718 z"
   id="path142" />
<path
   fill="#16d04d"
   opacity="1"
   stroke="none"
   d="m 542.6085,381.21177 c 0.2547,1.05599 0.3711,2.50219 0.3097,4.21325 -0.2678,-1.09781 -0.3577,-2.46042 -0.3097,-4.21325 z"
   id="path143" />
<path
   fill="#0cc830"
   opacity="1"
   stroke="none"
   d="m 316.3582,365.34983 c -0.416,0.56942 -1.0907,1.26464 -1.9568,1.71872 0.4385,-0.69172 1.0684,-1.14228 1.9568,-1.71872 z"
   id="path144" />
<path
   fill="#10c834"
   opacity="1"
   stroke="none"
   d="m 476.6397,520.7872 c 0.1773,-1.09826 0.644,-2.38262 1.4247,-3.82281 -0.1692,1.1084 -0.6524,2.37256 -1.4247,3.82281 z"
   id="path145" />
<path
   fill="#0cc830"
   opacity="1"
   stroke="none"
   d="m 279.7266,401.69522 c -0.1592,0.81778 -0.589,1.81006 -1.3499,2.91324 0.1392,-0.83899 0.6092,-1.78885 1.3499,-2.91324 z"
   id="path146" />
<path
   fill="#10c834"
   opacity="1"
   stroke="none"
   d="m 465.7936,535.97892 c 0.1138,-0.60108 0.4891,-1.34388 1.2306,-2.08576 -0.079,0.64862 -0.5239,1.29639 -1.2306,2.08576 z"
   id="path147" />
<path
   fill="#10c834"
   opacity="1"
   stroke="none"
   d="m 467.6094,533.80356 c 0.2371,-0.81079 0.7546,-1.77075 1.636,-2.74994 -0.2095,0.85413 -0.7825,1.72742 -1.636,2.74994 z"
   id="path148" />
<path
   fill="#0cc830"
   opacity="1"
   stroke="none"
   d="m 286.8318,391.71262 c -0.3033,0.82617 -0.9016,1.82471 -1.8761,2.89538 0.2763,-0.85958 0.9288,-1.79132 1.8761,-2.89538 z"
   id="path149" />
<path
   fill="#16d04d"
   opacity="1"
   stroke="none"
   d="m 542.6114,423.16477 c 0.2546,0.47748 0.3676,1.30099 0.3134,2.32696 -0.2633,-0.52533 -0.3591,-1.25311 -0.3134,-2.32696 z"
   id="path150" />
<path
   fill="#16d04d"
   opacity="1"
   stroke="none"
   d="m 327.8091,596.08475 c -0.4903,0.24396 -1.3392,0.37 -2.3867,0.30353 0.5436,-0.2688 1.2859,-0.34516 2.3867,-0.30353 z"
   id="path151" />
<path
   fill="#16d04d"
   opacity="1"
   stroke="none"
   d="m 542.5956,433.16068 c 0.2539,0.48315 0.367,1.31412 0.3046,2.34497 -0.2654,-0.53247 -0.3554,-1.2648 -0.3046,-2.34497 z"
   id="path152" />
<path
   fill="#10c834"
   opacity="1"
   stroke="none"
   d="m 464.1126,538.05942 c 0.1083,-0.55145 0.438,-1.27429 1.1228,-2.01098 -0.064,0.604 -0.4827,1.22173 -1.1228,2.01098 z"
   id="path153" />
<path
   fill="#0cc830"
   opacity="1"
   stroke="none"
   d="m 283.845,395.65265 c 0.028,0.46353 -0.2081,1.08481 -0.8018,1.72849 -0.059,-0.50867 0.2392,-1.03974 0.8018,-1.72849 z"
   id="path154" />
<path
   fill="#0cc830"
   opacity="1"
   stroke="none"
   d="m 281.7503,398.67282 c 0.046,0.46607 -0.1652,1.07538 -0.7306,1.68564 -0.078,-0.51349 0.1976,-1.02792 0.7306,-1.68564 z"
   id="path155" />
<path
   fill="#0cc830"
   opacity="1"
   stroke="none"
   d="m 277.8521,404.79679 c 0.071,0.43545 -0.1167,1.03884 -0.6121,1.76275 -0.087,-0.45126 0.1326,-1.02301 0.6121,-1.76275 z"
   id="path156" />
<path
   fill="#16d04d"
   opacity="1"
   stroke="none"
   d="m 542.6062,529.11313 c 0.245,0.22107 0.3553,0.75098 0.3096,1.43768 -0.2521,-0.27172 -0.3481,-0.70025 -0.3096,-1.43768 z"
   id="path157" />
<path
   fill="#10c834"
   opacity="1"
   stroke="none"
   d="m 478.553,516.8115 c 0,-0.46985 0.2616,-1.04303 0.8667,-1.547 0.027,0.5274 -0.2877,0.98553 -0.8667,1.547 z"
   id="path158" />
<path
   fill="#10c834"
   opacity="1"
   stroke="none"
   d="m 469.7229,531.0123 c -0.1155,-0.23358 0.022,-0.58905 0.4451,-1.03589 0.1265,0.24378 -0.033,0.57892 -0.4451,1.03589 z"
   id="path159" />
<path
   fill="#0cc830"
   opacity="1"
   stroke="none"
   d="m 291.9973,385.77671 c 0.2458,0.17804 0.3699,0.39422 0.4941,0.61041 -0.1382,-0.0128 -0.2764,-0.0256 -0.5719,-0.19144 -0.1575,-0.15304 -0.044,-0.38083 0.078,-0.41897 z"
   id="path160" />
<path
   fill="#0cc830"
   opacity="1"
   stroke="none"
   d="m 291.4334,386.41794 c 0.1263,0.25949 0.029,0.61951 -0.3875,0.95728 -0.2716,-0.36612 -0.1104,-0.64426 0.3875,-0.95728 z"
   id="path161" />
<path
   fill="#16d04d"
   opacity="1"
   stroke="none"
   d="m 542.6321,393.02658 c 0.4251,-0.0549 0.5089,0.20176 0.2423,0.62256 -0.2015,-0.0673 -0.2792,-0.22567 -0.2423,-0.62256 z"
   id="path162" />
<path
   fill="#10c834"
   opacity="1"
   stroke="none"
   d="m 463.3965,538.75949 c -0.2318,-0.18054 -0.3649,-0.38928 -0.498,-0.59808 0.1358,0.0207 0.2716,0.0414 0.5495,0.22479 0.142,0.16278 0.047,0.34497 -0.052,0.37329 z"
   id="path163" />
<path
   fill="#0cc830"
   opacity="1"
   stroke="none"
   d="m 317.8285,364.58493 c 0.034,0.2374 -0.1969,0.53501 -0.724,0.78772 -0.044,-0.27246 0.2074,-0.5 0.724,-0.78772 z"
   id="path164" />
<path
   fill="#10c834"
   opacity="1"
   stroke="none"
   d="m 479.9503,514.97306 c -0.1591,-0.19879 -0.1217,-0.5503 0.185,-1.00983 0.1833,0.21368 0.097,0.5354 -0.185,1.00983 z"
   id="path165" />
<path
   fill="#16d04d"
   opacity="1"
   stroke="none"
   d="m 542.6262,513.0261 c 0.4218,-0.066 0.5129,0.18853 0.2571,0.61609 -0.2021,-0.0623 -0.2824,-0.21857 -0.2571,-0.61609 z"
   id="path166" />
<path
   fill="#0cc830"
   opacity="1"
   stroke="none"
   d="m 282.5392,397.49393 c 0.1427,0.23151 0.049,0.59567 -0.3331,1.05255 -0.1597,-0.24481 -0.032,-0.58234 0.3331,-1.05255 z"
   id="path167" />
<path
   fill="#16d04d"
   opacity="1"
   stroke="none"
   d="m 542.6321,464.0264 c 0.4265,-0.0515 0.5084,0.20639 0.2369,0.62567 -0.2011,-0.0692 -0.2771,-0.22854 -0.2369,-0.62567 z"
   id="path168" />
<path
   fill="#0cc830"
   opacity="1"
   stroke="none"
   d="m 280.5176,400.48709 c 0.1466,0.23236 0.058,0.59867 -0.3208,1.0542 -0.1654,-0.24728 -0.04,-0.58377 0.3208,-1.0542 z"
   id="path169" />







<path
   fill="#fafbfa"
   opacity="1"
   stroke="none"
   d="m 390.5817,369.33127 c 23.058,4.15152 43.1167,14.17285 58.4399,32.02319 6.3749,7.4263 10.8377,16.49418 16.4873,25.46305 4.5212,12.34884 7.0049,24.28549 6.8661,36.85055 -0.1473,13.33496 -3.5769,25.77594 -8.4792,37.96616 0,0 0.1324,0.0265 -0.1616,0.15771 -1.1977,1.96881 -2.1014,3.8064 -3.0049,5.64402 0,0 0.114,0.10565 -0.1155,0.17065 -0.3366,0.41522 -0.4437,0.76544 -0.5509,1.11566 0,3e-5 0.081,-0.005 -0.1892,0.11945 -0.5155,0.67798 -0.7609,1.2319 -1.0064,1.78583 0,-3e-5 0.1824,0.0296 -0.083,0.0571 -0.4093,0.36551 -0.5529,0.7035 -0.6966,1.04148 0,0 0.079,0.004 -0.1943,0.14255 -0.5549,0.6885 -0.8367,1.2384 -1.1187,1.78827 -0.3187,0.0471 -0.5186,0.2265 -0.8745,0.92657 -0.8243,1.27228 -1.374,2.15613 -1.9238,3.04004 0,0 0.098,0.0378 -0.1686,0.10077 -0.5661,0.51501 -0.8662,0.9671 -1.1662,1.41919 0,6e-5 0.014,0.10278 -0.2264,0.25769 -0.4865,0.39026 -0.6309,0.67676 -0.6739,1.01452 0,0 0.1334,0.0851 -0.134,0.12867 -0.4291,0.375 -0.591,0.70636 -0.7528,1.03772 0,0 0.1781,0.038 -0.098,0.0596 -0.4596,0.34826 -0.6433,0.67492 -0.8271,1.00158 0,0 0.1582,0.0217 -0.1126,0.0518 -0.4585,0.34851 -0.6461,0.66699 -0.8338,0.98548 0,0 0.1391,0.0154 -0.1252,0.0535 -0.4552,0.34778 -0.6461,0.65747 -0.837,0.96716 0,0 0.099,6.8e-4 -0.1538,0.0531 -0.5726,0.44581 -0.893,0.83924 -1.2131,1.23273 0,0 -0.1082,0.13574 -0.3824,0.33203 -0.5975,0.57758 -0.9209,0.95887 -1.2442,1.34009 0,0 0.097,0.0284 -0.1636,0.0756 -0.4598,0.3512 -0.6586,0.65522 -0.8574,0.95923 0,0 0.1072,0.002 -0.1834,0.0681 -0.803,0.66864 -1.3154,1.27087 -1.8279,1.87304 0,0 0.1211,0.0426 -0.1635,0.0797 -0.5495,0.33887 -0.8142,0.64063 -1.079,0.94245 -13.0083,10.33929 -27.3886,17.82538 -44.6058,21.16589 -14.2066,2.81049 -27.5542,2.30921 -40.8527,-0.68908 -27.5935,-7.52057 -48.6792,-23.38105 -62.3455,-48.71421 -1.0942,-2.02844 -1.9329,-4.19476 -3.2368,-6.90411 -7.4529,-19.28034 -8.5095,-38.32535 -3.8563,-57.72125 10.4628,-35.16373 33.2125,-57.72437 69.5395,-67.39957 11.4238,-0.90091 22.1293,-1.4971 33.0713,-1.95492 0.5907,0.10058 0.945,0.0628 1.5137,0.0548 0.2144,0.0299 0.6017,-0.16351 0.6017,-0.16351 m -39.4607,94.50604 c 0,0 -0.1597,0.009 0.053,0.55063 0.317,0.21405 0.634,0.4281 1.1709,1.18674 0.8834,0.74817 1.7668,1.49634 2.8918,2.74719 0.4335,0.31949 0.8669,0.63901 1.3947,1.07465 0,0 0.057,0.13809 0.3292,0.55853 0.4919,0.43872 0.9837,0.87747 1.6358,1.39658 0,0 0.1734,0.0464 0.3062,0.45819 0.1652,0.27752 0.4088,0.40384 0.8197,0.45901 0,0 0.047,0.1098 0.168,0.53082 0.1665,0.28055 0.4126,0.40989 0.7479,0.5329 0,0 0.033,0.14139 0.2928,0.58521 0.3957,0.32522 0.7912,0.65045 1.2074,0.88913 0,0 -0.089,-4.9e-4 0.11,0.51181 0.3002,0.19519 0.6005,0.39038 0.8988,0.49634 0,0 -0.087,0.0219 0.1487,0.53781 0.4557,0.31408 0.9115,0.6282 1.4517,1.03064 0,0 0.036,0.11663 0.159,0.33667 0,0 0.2445,0.0601 0.5796,0.71905 5.4685,3.62131 10.3665,3.67734 14.8667,-0.66366 8.4613,-8.16187 16.6182,-16.63932 25.3707,-25.15305 0.3168,-0.37329 0.6337,-0.74661 1.0256,-1.26556 0,0 0.069,-0.14856 0.4578,-0.31702 0.2531,-0.16449 0.3991,-0.39645 0.5588,-0.75156 0,0 0.1287,-0.0326 0.559,-0.32202 0.4556,-0.51205 0.9113,-1.02411 1.3957,-1.65854 0,0 0.079,-0.0975 0.4775,-0.26883 0.2585,-0.16848 0.4078,-0.40573 0.5592,-0.75952 0,0 0.1199,-0.0157 0.5562,-0.29501 0.4596,-0.50394 0.919,-1.00784 1.4403,-1.65003 0,0 0.079,-0.1293 0.4588,-0.28408 0.2492,-0.1558 0.3898,-0.37973 0.5678,-0.72412 0,0 0.1451,-0.0541 0.6115,-0.36676 0.6395,-0.70966 1.2789,-1.41932 1.8344,-2.16526 0,0 0.033,0.0853 0.5302,-0.1018 0.3216,-0.40885 0.6433,-0.81769 1.0173,-1.34949 0,0 0.1217,-0.0551 0.5676,-0.33222 0.3357,-0.39971 0.6715,-0.79943 1.4558,-1.30841 0.2876,-0.17733 0.4356,-0.43493 0.9368,-0.99017 0.3274,-0.41086 0.6548,-0.82172 1.0646,-1.35455 0,0 0.1301,-0.0685 0.573,-0.34623 0.3328,-0.39831 0.6657,-0.79663 1.5216,-1.3699 0.4513,-0.56183 0.9027,-1.12366 1.9104,-1.95407 0.5266,-0.62219 1.0533,-1.24438 2.0184,-1.97458 0.2822,-0.17349 0.4257,-0.42587 0.9773,-1.02038 0.4984,-0.62488 0.9968,-1.24976 1.4147,-1.90448 0,0 0.034,0.0788 0.6583,-0.25574 2.2837,-2.94025 4.8715,-5.8068 2.3853,-9.79971 0,0 0.101,-0.006 -0.01,-0.74235 -0.064,-0.73236 -0.1274,-1.46475 -0.2816,-2.88162 -5.8,-7.16839 -11.4147,-7.63342 -18.1271,-1.24154 -5.1832,4.93564 -10.2068,10.0433 -15.1991,15.17401 -8.8827,9.12887 -17.6878,18.33319 -26.4544,27.43243 -10.9064,-10.39206 -20.6869,-19.90838 -30.7002,-29.17312 -5.3605,-4.95963 -10.9665,-4.73853 -15.3303,0.03 -4.2608,4.65586 -4.1471,10.79361 0.695,15.61158 6.1283,6.09765 12.5117,11.93875 19.1371,18.44882 0.372,0.21573 0.7438,0.43143 1.0917,0.45502 0,0 -0.1836,0.0611 0.033,0.59622 0.3276,0.18924 0.6553,0.37851 0.9972,0.40228 0,0 -0.165,0.0196 0.04,0.55371 0.3153,0.20142 0.6306,0.4028 0.9581,0.44501 0,0 -0.1582,0.0219 0.05,0.55176 0.3134,0.20041 0.6266,0.40081 0.9611,0.44262 z"
   id="path177" />
<path
   fill="#0cc830"
   opacity="1"
   stroke="none"
   d="m 464.2569,501.55155 c 4.5412,-12.10755 7.9708,-24.54853 8.1181,-37.88349 0.1388,-12.56506 -2.3449,-24.50171 -6.664,-36.53601 0.8018,0.68213 2.1504,1.54419 2.5722,2.73468 8.456,23.86103 7.5226,47.41742 -2.576,70.61405 -0.1785,0.40976 -0.718,0.66226 -1.4503,1.07077 z"
   id="path178" />
<path
   fill="#0cc830"
   opacity="1"
   stroke="none"
   d="m 285.5154,438.8862 c -4.3131,19.30414 -3.2565,38.34915 3.9439,57.40045 -1.9107,-4.40734 -4.5821,-9.03082 -5.7905,-14.0094 -3.2026,-13.19519 -2.9434,-26.55566 -0.1766,-39.84152 0.2534,-1.21664 1.1077,-2.30816 2.0232,-3.54953 z"
   id="path179" />
<path
   fill="#0cc830"
   opacity="1"
   stroke="none"
   d="m 355.4178,552.51719 c 13.1748,2.61511 26.5224,3.11639 40.3472,0.42016 -1.8762,0.88324 -4.1728,2.50977 -6.4555,2.49072 -10.2371,-0.0855 -20.4719,-0.59936 -30.7016,-1.08471 -1.0427,-0.0494 -2.0453,-0.94178 -3.1901,-1.82617 z"
   id="path180" />
<path
   fill="#09c72c"
   opacity="1"
   stroke="none"
   d="m 390.3011,368.95182 c 0.2806,0.37945 -0.1067,0.57287 -0.5433,0.35003 -0.8004,-0.14862 -1.1641,-0.0744 -1.528,-2.7e-4 -10.7055,0.59619 -21.411,1.19238 -32.5357,1.89963 2.5541,-0.90653 5.458,-2.28556 8.5141,-2.87262 8.5894,-1.65009 17.2246,-1.57148 26.0929,0.62323 z"
   id="path181" />
<path
   fill="#0cc830"
   opacity="1"
   stroke="none"
   d="m 461.1084,507.43253 c 0.5244,-1.8342 1.4281,-3.67179 2.6111,-5.70654 -0.5576,1.76965 -1.3946,3.73641 -2.6111,5.70654 z"
   id="path182" />
<path
   fill="#0cc830"
   opacity="1"
   stroke="none"
   d="m 454.3494,517.6268 c 0.1765,-0.88714 0.7262,-1.77099 1.5369,-2.83142 -0.2138,0.82715 -0.6886,1.83087 -1.5369,2.83142 z"
   id="path183" />
<path
   fill="#0cc830"
   opacity="1"
   stroke="none"
   d="m 442.3482,530.63938 c 0.1594,-0.60645 0.6718,-1.20868 1.4607,-1.92908 -0.1852,0.56567 -0.6465,1.24951 -1.4607,1.92908 z"
   id="path184" />
<path
   fill="#0cc830"
   opacity="1"
   stroke="none"
   d="m 452.9795,519.22647 c -0.038,-0.53503 0.2619,-0.98712 0.8136,-1.55243 0.01,0.46967 -0.2331,1.05256 -0.8136,1.55243 z"
   id="path185" />
<path
   fill="#0cc830"
   opacity="1"
   stroke="none"
   d="m 446.9656,526.12503 c 0.01,-0.53155 0.3289,-0.92498 0.8881,-1.41827 -0.033,0.45221 -0.3046,1.00427 -0.8881,1.41827 z"
   id="path186" />
<path
   fill="#0cc830"
   opacity="1"
   stroke="none"
   d="m 459.1826,510.52817 c -0.07,-0.45456 0.1756,-1.00848 0.6792,-1.72525 0.051,0.43341 -0.1565,1.02963 -0.6792,1.72525 z"
   id="path187" />
<path
   fill="#0cc830"
   opacity="1"
   stroke="none"
   d="m 445.3695,527.65842 c -0.019,-0.38055 0.3046,-0.76184 0.8346,-1.28479 -0.026,0.33362 -0.2592,0.8089 -0.8346,1.28479 z"
   id="path188" />
<path
   fill="#0cc830"
   opacity="1"
   stroke="none"
   d="m 457.0957,513.55478 c -0.039,-0.44769 0.2425,-0.99759 0.7813,-1.72211 0.018,0.4235 -0.221,1.02167 -0.7813,1.72211 z"
   id="path189" />
<path
   fill="#0cc830"
   opacity="1"
   stroke="none"
   d="m 441.0578,531.57962 c -0.04,-0.22424 0.2243,-0.526 0.7789,-0.92889 0.035,0.21643 -0.2192,0.53387 -0.7789,0.92889 z"
   id="path190" />
<path
   fill="#0cc830"
   opacity="1"
   stroke="none"
   d="m 444.27,528.5997 c -0.065,-0.20977 0.134,-0.51379 0.5932,-0.91571 0.064,0.20856 -0.1328,0.51496 -0.5932,0.91571 z"
   id="path191" />
<path
   fill="#0cc830"
   opacity="1"
   stroke="none"
   d="m 448.2823,524.59897 c -0.071,-0.20752 0.1204,-0.51721 0.5689,-0.93457 0.069,0.20563 -0.1191,0.51904 -0.5689,0.93457 z"
   id="path192" />
<path
   fill="#0cc830"
   opacity="1"
   stroke="none"
   d="m 449.2549,523.58432 c -0.084,-0.22229 0.1035,-0.54077 0.5518,-0.9685 0.08,0.21789 -0.1,0.5451 -0.5518,0.9685 z"
   id="path193" />
<path
   fill="#0cc830"
   opacity="1"
   stroke="none"
   d="m 450.2132,522.5549 c -0.1,-0.23828 0.084,-0.56494 0.5308,-1.00341 0.093,0.23053 -0.077,0.57281 -0.5308,1.00341 z"
   id="path194" />
<path
   fill="#0cc830"
   opacity="1"
   stroke="none"
   d="m 460.3223,508.59378 c -0.1522,-0.22174 -0.045,-0.57196 0.2997,-1.06445 0.145,0.21713 0.053,0.57654 -0.2997,1.06445 z"
   id="path195" />
<path
   fill="#0cc830"
   opacity="1"
   stroke="none"
   d="m 458.3423,511.60639 c -0.1112,-0.21823 0.032,-0.55622 0.4307,-1.01346 0.1112,0.21838 -0.032,0.55606 -0.4307,1.01346 z"
   id="path196" />
<path
   fill="#0cc830"
   opacity="1"
   stroke="none"
   d="m 452.0535,520.40995 c -0.2695,-0.33197 -0.1251,-0.61847 0.3332,-0.96515 0.1348,0.24554 0.057,0.60248 -0.3332,0.96515 z"
   id="path197" />
<path
   fill="#0cc830"
   opacity="1"
   stroke="none"
   d="m 451.1536,521.50998 c -0.1376,-0.25921 0.024,-0.59057 0.4383,-1.04321 0.122,0.2428 -0.01,0.60693 -0.4383,1.04321 z"
   id="path198" />







<path
   fill="#14cf4a"
   opacity="1"
   stroke="none"
   d="m 420.2407,437.92951 c -0.01,0.33783 -0.1561,0.59543 -1.0092,0.8453 -0.8225,0.55271 -1.0794,1.03284 -1.3362,1.51297 0,0 -0.1217,0.0551 -0.4692,-0.005 -0.6208,0.4923 -0.8941,1.04431 -1.1674,1.59631 0,3e-5 -0.033,-0.0853 -0.3497,-0.0608 -0.8726,0.83414 -1.4281,1.64374 -1.9837,2.45334 0,0 -0.1451,0.0541 -0.5187,-0.0239 -0.4404,0.26697 -0.5074,0.61197 -0.5743,0.95697 0,0 -0.079,0.1293 -0.449,0.0523 -0.7489,0.61749 -1.1277,1.31192 -1.5063,2.00635 0,0 -0.1199,0.0157 -0.4837,-0.0451 -0.4403,0.29001 -0.5168,0.64081 -0.5935,0.99164 0,0 -0.079,0.0975 -0.438,0.0274 -0.7281,0.62595 -1.0977,1.32197 -1.4674,2.01798 0,3e-5 -0.1287,0.0326 -0.4947,-0.0299 -0.4379,0.28583 -0.5097,0.63419 -0.5814,0.98255 0,0 -0.069,0.14856 -0.3576,0.0564 -0.5943,0.44696 -0.9002,0.98612 -1.2062,1.52524 -8.2835,8.34622 -16.4404,16.82367 -24.9017,24.98554 -4.5002,4.341 -9.3982,4.28497 -14.8674,0.20941 -0.2343,-0.46448 -0.4678,-0.47467 -0.7014,-0.48487 0,3e-5 -0.036,-0.1166 -0.02,-0.50128 -0.5566,-0.64376 -1.1302,-0.90283 -1.7037,-1.16186 0,0 0.087,-0.0219 -0.015,-0.23139 -0.3998,-0.40603 -0.698,-0.6026 -0.9962,-0.79916 0,0 0.089,4.9e-4 0.071,-0.29624 -0.4951,-0.54321 -0.972,-0.78973 -1.4489,-1.03622 0,0 -0.033,-0.14139 0.051,-0.51755 -0.2618,-0.44339 -0.607,-0.51056 -0.9524,-0.57776 0,0 -0.047,-0.1098 -0.01,-0.45443 -0.3035,-0.40515 -0.6491,-0.46567 -0.9945,-0.52622 0,0 -0.1734,-0.0464 -0.091,-0.42273 -0.6084,-0.73117 -1.2993,-1.0859 -1.9903,-1.44064 0,0 -0.057,-0.13809 0,-0.53281 -0.5278,-0.65735 -1.1085,-0.91998 -1.6891,-1.18264 -0.8834,-0.74814 -1.7668,-1.49631 -2.8569,-2.79691 -0.53,-0.76028 -0.8534,-0.96811 -1.1768,-1.17596 0,0 0.1597,-0.009 0.062,-0.20893 -0.4223,-0.39081 -0.7472,-0.58166 -1.0721,-0.77258 0,0 0.1582,-0.0219 0.064,-0.22144 -0.4192,-0.39291 -0.7439,-0.58624 -1.0686,-0.77957 0,0 0.165,-0.0196 0.063,-0.21841 -0.4386,-0.37869 -0.7756,-0.55859 -1.1125,-0.73847 0,-3e-5 0.1836,-0.0612 0.062,-0.27758 -0.5218,-0.40992 -0.9218,-0.60343 -1.3218,-0.79694 -6.2735,-5.95175 -12.6569,-11.79285 -18.7852,-17.8905 -4.8421,-4.81797 -4.9558,-10.95572 -0.695,-15.61158 4.3638,-4.76855 9.9698,-4.98965 15.3303,-0.03 10.0133,9.26474 19.7938,18.78106 30.7002,29.17312 8.7666,-9.09924 17.5717,-18.30356 26.4544,-27.43243 4.9923,-5.13071 10.0159,-10.23837 15.1991,-15.17401 6.7124,-6.39188 12.3271,-5.92685 17.9338,1.78293 0.065,1.38647 0.3244,2.23156 0.5833,3.07669 0,0 -0.101,0.006 -0.1325,0.34927 -1.0136,3.49255 -1.9958,6.64172 -2.9781,9.79089 0,-3e-5 -0.034,-0.0788 -0.341,-0.0389 -0.7564,0.73587 -1.2056,1.43183 -1.6549,2.12781 0,0.33124 -0.1479,0.58362 -1.0044,0.8302 -1.0497,0.7721 -1.5251,1.4711 -2.0004,2.17011 -0.4514,0.56179 -0.9028,1.12362 -1.96,1.78466 -0.8568,0.58228 -1.1078,1.06534 -1.3586,1.54841 0,0 -0.1301,0.0685 -0.4973,0.008 -0.6417,0.50369 -0.916,1.06826 -1.1905,1.63284 z"
   id="path206" />
<path
   fill="#0cc830"
   opacity="1"
   stroke="none"
   d="m 430.56,427.69944 c 0.6701,-2.98188 1.6523,-6.13105 2.6734,-9.67368 2.5102,3.69961 -0.078,6.56616 -2.6734,9.67368 z"
   id="path207" />
<path
   fill="#0cc830"
   opacity="1"
   stroke="none"
   d="m 414.1585,444.11576 c 0.3224,-0.65329 0.8779,-1.46289 1.7925,-2.27887 -0.2804,0.70324 -0.9198,1.4129 -1.7925,2.27887 z"
   id="path208" />
<path
   fill="#09c72c"
   opacity="1"
   stroke="none"
   d="m 356.8246,469.74485 c 0.5551,0.1445 1.246,0.49923 1.7742,1.19018 -0.6546,-0.10251 -1.1464,-0.54126 -1.7742,-1.19018 z"
   id="path209" />
<path
   fill="#0cc830"
   opacity="1"
   stroke="none"
   d="m 433.3042,417.35834 c -0.2047,-0.4769 -0.4636,-1.32199 -0.484,-2.36624 0.3024,0.53326 0.3661,1.26565 0.484,2.36624 z"
   id="path210" />
<path
   fill="#0cc830"
   opacity="1"
   stroke="none"
   d="m 428.5254,429.82401 c 0.1758,-0.56433 0.625,-1.26029 1.4216,-1.98126 -0.1511,0.59988 -0.6495,1.22476 -1.4216,1.98126 z"
   id="path211" />
<path
   fill="#0cc830"
   opacity="1"
   stroke="none"
   d="m 425.5252,432.82169 c 0.1972,-0.56473 0.6726,-1.26373 1.5031,-1.98181 -0.1716,0.60309 -0.6983,1.22528 -1.5031,1.98181 z"
   id="path212" />
<path
   fill="#0cc830"
   opacity="1"
   stroke="none"
   d="m 411.0951,447.12412 c 0.1605,-0.55478 0.5393,-1.24921 1.2575,-1.79755 -0.1203,0.65003 -0.5797,1.15393 -1.2575,1.79755 z"
   id="path213" />
<path
   fill="#0cc830"
   opacity="1"
   stroke="none"
   d="m 408.1096,450.11103 c 0.1545,-0.55133 0.5241,-1.24735 1.2378,-1.81211 -0.1114,0.64331 -0.5671,1.15537 -1.2378,1.81211 z"
   id="path214" />
<path
   fill="#0cc830"
   opacity="1"
   stroke="none"
   d="m 405.489,452.70627 c 0.072,-0.45538 0.3774,-0.99454 0.9341,-1.36865 -0.066,0.53827 -0.3828,0.91159 -0.9341,1.36865 z"
   id="path215" />
<path
   fill="#09c72c"
   opacity="1"
   stroke="none"
   d="m 363.1782,476.09488 c 0.4559,0.001 1.0295,0.26017 1.5439,0.85974 -0.5148,0.0264 -0.9706,-0.28769 -1.5439,-0.85974 z"
   id="path216" />
<path
   fill="#0cc830"
   opacity="1"
   stroke="none"
   d="m 420.4873,437.8208 c 0.028,-0.45587 0.3022,-1.02044 0.9026,-1.46316 0,0.53274 -0.3287,0.9436 -0.9026,1.46316 z"
   id="path217" />
<path
   fill="#09c72c"
   opacity="1"
   stroke="none"
   d="m 360.8011,473.69583 c 0.347,0.0246 0.8239,0.27112 1.3088,0.85761 -0.3878,0.0148 -0.7833,-0.31046 -1.3088,-0.85761 z"
   id="path218" />
<path
   fill="#09c72c"
   opacity="1"
   stroke="none"
   d="m 355.1157,468.07053 c 0.4599,0.0113 1.0406,0.27392 1.5213,0.87323 -0.5335,0.0171 -0.9669,-0.3024 -1.5213,-0.87323 z"
   id="path219" />
<path
   fill="#0cc830"
   opacity="1"
   stroke="none"
   d="m 416.5075,441.78592 c 0.024,-0.45843 0.2978,-1.01044 0.8924,-1.44125 -3e-4,0.53003 -0.322,0.93887 -0.8924,1.44125 z"
   id="path220" />
<path
   fill="#0cc830"
   opacity="1"
   stroke="none"
   d="m 418.1182,440.14923 c 0.034,-0.34158 0.2908,-0.82171 0.8889,-1.31979 0.01,0.38181 -0.3302,0.78153 -0.8889,1.31979 z"
   id="path221" />
<path
   fill="#0cc830"
   opacity="1"
   stroke="none"
   d="m 422.1499,436.15018 c 0.029,-0.34421 0.2804,-0.82727 0.8758,-1.32208 0.011,0.38659 -0.3215,0.78491 -0.8758,1.32208 z"
   id="path222" />
<path
   fill="#09c72c"
   opacity="1"
   stroke="none"
   d="m 348.0059,461.17441 c 0.2285,-0.0876 0.5655,0.0923 0.9969,0.55371 -0.2331,0.0923 -0.5608,-0.0969 -0.9969,-0.55371 z"
   id="path223" />
<path
   fill="#09c72c"
   opacity="1"
   stroke="none"
   d="m 346.8135,460.11154 c 0.224,-0.0857 0.624,0.10785 1.1578,0.61383 -0.2381,0.0967 -0.6099,-0.11895 -1.1578,-0.61383 z"
   id="path224" />
<path
   fill="#09c72c"
   opacity="1"
   stroke="none"
   d="m 349.0491,462.13083 c 0.2222,-0.0737 0.5469,0.1196 0.96,0.59213 -0.227,0.0778 -0.5423,-0.12362 -0.96,-0.59213 z"
   id="path225" />
<path
   fill="#14cf4b"
   opacity="1"
   stroke="none"
   d="m 388.4663,369.43995 c 0.1274,-0.21253 0.4911,-0.28672 1.0772,-0.16797 -0.1322,0.23074 -0.4865,0.26855 -1.0772,0.16797 z"
   id="path226" />
<path
   fill="#0cc830"
   opacity="1"
   stroke="none"
   d="m 407.0126,451.12415 c -0.1226,-0.26413 -0.051,-0.61249 0.3267,-0.87045 0.2667,0.38977 0.1207,0.62173 -0.3267,0.87045 z"
   id="path227" />
<path
   fill="#0cc830"
   opacity="1"
   stroke="none"
   d="m 409.9988,448.12464 c -0.1223,-0.26517 -0.046,-0.61597 0.3391,-0.88211 0.2678,0.39071 0.1185,0.62796 -0.3391,0.88211 z"
   id="path228" />
<path
   fill="#0cc830"
   opacity="1"
   stroke="none"
   d="m 413.0224,445.12772 c -0.1232,-0.26761 -0.056,-0.61261 0.3114,-0.85339 0.2684,0.39627 0.1278,0.6202 -0.3114,0.85339 z"
   id="path229" />
<path
   fill="#09c72c"
   opacity="1"
   stroke="none"
   d="m 362.149,475.06253 c 0.1987,-0.0596 0.4969,0.137 0.8975,0.58765 -0.1977,0.0589 -0.498,-0.13629 -0.8975,-0.58765 z"
   id="path230" />
<path
   fill="#09c72c"
   opacity="1"
   stroke="none"
   d="m 359.8297,472.58914 c 0.285,-0.14331 0.6302,-0.0761 0.8871,0.2948 -0.414,0.3256 -0.6601,0.19626 -0.8871,-0.2948 z"
   id="path231" />
<path
   fill="#09c72c"
   opacity="1"
   stroke="none"
   d="m 358.8361,471.60391 c 0.279,-0.14538 0.6246,-0.0849 0.8838,0.28028 -0.4086,0.32947 -0.6522,0.20315 -0.8838,-0.28028 z"
   id="path232" />
<path
   fill="#09c72c"
   opacity="1"
   stroke="none"
   d="m 351.0677,464.11713 c 0.217,-0.063 0.5404,0.14484 0.9604,0.63284 -0.2202,0.0661 -0.5372,-0.14798 -0.9604,-0.63284 z"
   id="path233" />
<path
   fill="#09c72c"
   opacity="1"
   stroke="none"
   d="m 350.0557,463.12973 c 0.2206,-0.074 0.5455,0.11682 0.9573,0.58695 -0.2265,0.0788 -0.5397,-0.12158 -0.9573,-0.58695 z"
   id="path234" />
<path
   fill="#09c72c"
   opacity="1"
   stroke="none"
   d="m 364.8452,477.61014 c 0.1724,-0.0999 0.4059,-0.0897 0.4727,0.0453 -0.1669,0.12482 -0.4114,0.0647 -0.4727,-0.0453 z"
   id="path235" />
</svg>
